<svg xmlns="http://www.w3.org/2000/svg" viewBox="0 0 632.98 572.64">
  <defs>
    <style>
      .cls-1 {
        fill: #006838;
      }

      .cls-2 {
        fill: #ff9d73;
      }

      .cls-3 {
        fill: #5997ff;
      }

      .cls-4 {
        fill: #231f20;
      }

      .cls-5 {
        fill: #afd6ff;
      }
    </style>
  </defs>
  <g id="Layer_2" data-name="Layer 2">
    <g id="ground">
      <g id="ground-left">
        <path class="cls-1" d="M198.31,538.78a.86.86,0,0,1-.09.71,2,2,0,0,1-1.1,1.09c-1.23.45-2.87-.33-3.86-1.12-1.6-1.26-3.08-2.73-5.32-2.29a4.48,4.48,0,0,0-3.35,3.22,11.26,11.26,0,0,0-.33,1.75c0,.26-.08.52-.13.78,0,.1-.19,1-.1.59-.06.27-.23.11,0,.06-.35.07.08.3,0,0-.13-.46.28.15,0-.15a2.5,2.5,0,0,0-.57-.15,13.62,13.62,0,0,1-2.33-.88c-3.29-1.67-5.87-4.37-8.35-7-3.57-3.85-7.12-7.73-10.67-11.59-1.17-1.26-3.93-.78-4.18,1.1-.56,4.14-1.11,8.27-1.68,12.41-.23,1.66-.39,3.28-1.76,4.42a17.34,17.34,0,0,1-4.2,2.46,21.66,21.66,0,0,1-18.46-.69c-2.84-1.5-5.37,2.81-2.52,4.32a26.85,26.85,0,0,0,23.15.84c3.8-1.64,7.48-4.08,8.36-8.39.94-4.59,1.3-9.38,1.93-14l-4.18,1.11c3.6,3.91,7.19,7.84,10.81,11.73,3,3.2,6.22,6.4,10.29,8.17,2.15.93,4.88,1.89,7.05.56a5.76,5.76,0,0,0,2.34-4.33c0-.35.1-.69.16-1,0-.17.08-.33.11-.49.08-.39,0,0,0-.06s.51-.3,0,0a1.2,1.2,0,0,0-.27.16c-.35.3-.6-.12,0,.39,1.91,1.51,3.65,2.84,6.15,3.18,5.16.69,9.84-4.31,7.41-9.33a2.52,2.52,0,0,0-3.42-.9,2.55,2.55,0,0,0-.89,3.42Z"/>
      </g>
      <g id="ground-center">
        <path class="cls-1" d="M280.59,543.66a4.08,4.08,0,0,1,3.11-2.21,4,4,0,0,1,1.94.16,3.13,3.13,0,0,1,.86.44,14.56,14.56,0,0,0,1.43.93,4.52,4.52,0,0,0,4.2,0,28.85,28.85,0,0,1,2.42-1.6,4.13,4.13,0,0,1,4,.7,2.55,2.55,0,0,0,3.53,0,2.53,2.53,0,0,0,0-3.54,9.18,9.18,0,0,0-7.75-2.24,8.28,8.28,0,0,0-3.62,1.57,7.68,7.68,0,0,1-1,.69c.47-.21.51.15.09-.24a6.12,6.12,0,0,0-.84-.6,9.22,9.22,0,0,0-12.75,3.41c-1.49,2.85,2.82,5.38,4.31,2.52Z"/>
      </g>
      <g id="ground-right">
        <path class="cls-1" d="M439.82,536.26a8.17,8.17,0,0,0,3-1.34c.75-.45,1-.23,1.61.46,1.62,1.88,2.42,4.27,4.95,5.2,2.83,1,4.8-.88,6.15-3.13,1.51-2.48,3-5,4.5-7.47h-4.32l5.95,8.66a9.77,9.77,0,0,0,3.09,3.42c1.69.89,3.27.37,4.86-.43,1.88-1,4.12-.22,6.09.19,2.87.61,5.54.85,8.28-.35a2.52,2.52,0,0,0,.9-3.42,2.56,2.56,0,0,0-3.42-.89c-1.57.68-3.7,0-5.3-.34a15.69,15.69,0,0,0-6.91-.39,8.4,8.4,0,0,0-1.69.64,2,2,0,0,0-.64.33c-.37.41,0-.11.08.2l.21.14-.26-.26c-.13-.19-.29-.37-.42-.56l-1.25-1.81L460,527.46a2.54,2.54,0,0,0-4.32,0l-4,6.64a9.07,9.07,0,0,0-.94,1.54.62.62,0,0,1-.25.34c-.14.17,0,.14.53-.08a21.85,21.85,0,0,1-1.45-1.79c-1.25-1.94-2.76-3.9-5.17-4.38a5.52,5.52,0,0,0-3.67.6,7.14,7.14,0,0,1-2.29,1.11,2.52,2.52,0,0,0-1.74,3.08,2.55,2.55,0,0,0,3.07,1.74Z"/>
      </g>
    </g>
    <g id="orange-accent-two">
      <g id="orange-right-two">
        <path class="cls-2" d="M511.58,303q18.23-15.42,36.77-30.5,20.37-16.66,40.93-33.09,9.94-7.94,20-15.78c2.34-1.83,3.66-6,3.66-8.84a12.73,12.73,0,0,0-3.66-8.84,12.6,12.6,0,0,0-8.84-3.66l-3.32.45a12.44,12.44,0,0,0-5.52,3.21c-12.55,9.8-25,19.76-37.37,29.76q-20.48,16.53-40.77,33.3-9.79,8.12-19.52,16.31c-2.33,2-3.66,5.91-3.66,8.84A12.71,12.71,0,0,0,493.9,303a12.56,12.56,0,0,0,8.84,3.66l3.32-.44a12.55,12.55,0,0,0,5.52-3.22Z"/>
      </g>
      <g id="orange-left-two">
        <path class="cls-2" d="M489.55,222.15l76.84,62.37,21.73,17.63a9.31,9.31,0,0,0,4,2.59,9.51,9.51,0,0,0,4.82,1.08,12.74,12.74,0,0,0,8.84-3.67,12.59,12.59,0,0,0,3.66-8.83c-.14-3.12-1.14-6.79-3.66-8.84L529,222.11l-21.73-17.64a9.29,9.29,0,0,0-4-2.58,9.51,9.51,0,0,0-4.82-1.08,12.5,12.5,0,0,0-12.5,12.5c.14,3.11,1.14,6.79,3.66,8.84Z"/>
      </g>
      <g id="orange-center-straight-two">
        <path class="cls-2" d="M539.07,196.93V308.14a12.88,12.88,0,0,0,3.66,8.84,12.51,12.51,0,0,0,17.68,0,13,13,0,0,0,3.66-8.84V196.93a12.94,12.94,0,0,0-3.66-8.84,12.51,12.51,0,0,0-17.68,0,13,13,0,0,0-3.66,8.84Z"/>
      </g>
      <g id="orange-center-two">
        <path class="cls-2" d="M481.57,267q27.07.53,54.12,1.69t54.31,3q15.25,1,30.47,2.25c3,.24,6.75-1.57,8.84-3.67a12.49,12.49,0,0,0,0-17.67,13.85,13.85,0,0,0-8.84-3.66q-27-2.18-54-3.7t-54.34-2.43q-15.27-.51-30.54-.8a12.82,12.82,0,0,0-8.84,3.66A12.5,12.5,0,0,0,481.57,267Z"/>
      </g>
    </g>
    <g id="orange-accent">
      <g id="orange-right">
        <path class="cls-2" d="M433.65,151.61q24.51-20.73,49.41-41,27.29-22.32,54.83-44.32,13.25-10.58,26.58-21c2.35-1.83,3.66-6,3.66-8.84a12.71,12.71,0,0,0-3.66-8.84A12.56,12.56,0,0,0,555.63,24l-3.32.44a12.55,12.55,0,0,0-5.52,3.22c-16.86,13.16-33.56,26.54-50.21,40Q469.15,89.76,442,112.21q-13.05,10.8-26,21.72c-2.33,2-3.66,5.9-3.66,8.84a12.71,12.71,0,0,0,3.66,8.84,12.56,12.56,0,0,0,8.84,3.66l3.32-.45a12.4,12.4,0,0,0,5.51-3.21Z"/>
      </g>
      <g id="orange-left">
        <path class="cls-2" d="M410.16,43.29l51.49,41.79,51.49,41.8,29,23.57a14,14,0,0,0,8.84,3.66,12.71,12.71,0,0,0,8.84-3.66,12.56,12.56,0,0,0,3.66-8.84c-.14-3.11-1.13-6.79-3.66-8.84L508.37,91l-51.5-41.79-29-23.57a9.4,9.4,0,0,0-4-2.59A9.37,9.37,0,0,0,419,22a12.71,12.71,0,0,0-8.84,3.66,12.56,12.56,0,0,0-3.66,8.84c.13,3.11,1.13,6.79,3.66,8.84Z"/>
      </g>
      <g id="orange-center-straight">
        <path class="cls-2" d="M477.72,12.51v149a12.91,12.91,0,0,0,3.67,8.84,12.49,12.49,0,0,0,17.67,0,13,13,0,0,0,3.66-8.84v-149a12.88,12.88,0,0,0-3.66-8.84,12.49,12.49,0,0,0-17.67,0,13,13,0,0,0-3.67,8.84Z"/>
      </g>
      <g id="orange-center">
        <path class="cls-2" d="M396.46,102.11q36.36.72,72.7,2.28t72.62,4q20.38,1.36,40.74,3c3,.25,6.75-1.57,8.84-3.66a12.49,12.49,0,0,0,0-17.67,13.93,13.93,0,0,0-8.84-3.67q-36.25-2.91-72.56-5T437.3,78.18q-20.42-.66-40.84-1.07a12.5,12.5,0,0,0,0,25Z"/>
      </g>
    </g>
    <g id="bigfoot">
      <path class="cls-3" d="M210.38,394.74C211,411.87,221.16,427,235,436.62A61.63,61.63,0,0,0,246,442.75c2,.84,4,1.6,6,2.24,1.73.54,3.93.81,5.34,2s1.28,3.72,1.42,5.4a50.77,50.77,0,0,1,.17,6c-.13,3.46-.8,7.29-3.34,9.83-3.14,3.15-8,3.14-12.15,2.88a55.58,55.58,0,0,1-14.37-3c-9.57-3.25-18.33-8.48-26.89-13.75-7.88-4.86-16.43-9.75-22.07-17.3C174,428.87,172,418,170.79,408c-.67-5.41-1.06-10.85-1.45-16.29-.32-4.39-.57-8.78-.52-13.18.09-8.06,1.14-16.55,5.67-23.43a25.25,25.25,0,0,1,3.75-4.38c2.35-2.21-1.19-5.74-3.54-3.54-6.65,6.25-9.48,15-10.45,23.87-1.05,9.55-.1,19.28.71,28.82.95,11.15,2.28,22.76,6.95,33.06,4.28,9.45,12.3,15.94,20.82,21.44,8.77,5.66,17.76,11.28,27.31,15.54a76.17,76.17,0,0,0,15,5.09,43.53,43.53,0,0,0,15.67.9,14.61,14.61,0,0,0,11-7.61c2-3.89,2.39-8.38,2.26-12.69-.13-4.53-.06-10.27-4.26-13.07-1.89-1.26-4.21-1.71-6.35-2.38a53.85,53.85,0,0,1-5.8-2.17c-15.32-6.83-28.29-20.4-31.51-37.21a38.48,38.48,0,0,1-.66-6.05c-.12-3.21-5.12-3.22-5,0Z"/>
      <path class="cls-3" d="M178.57,348c.78-6.5-.09-13-.19-19.5a38.67,38.67,0,0,1,.77-9.36,54.58,54.58,0,0,1,3.26-8.85,35.19,35.19,0,0,0,2.58-9,46.68,46.68,0,0,0,.15-9.6c-.47-6.36-1.63-12.66-1.4-19.05a59.22,59.22,0,0,1,10.39-30.77,65.25,65.25,0,0,1,25.43-21.74,76.25,76.25,0,0,1,33-7.7,49,49,0,0,1,18.38,3.09,53.44,53.44,0,0,1,14.75,9.09,72.49,72.49,0,0,1,19.53,26.19c5,11.44,6,23.78,6.92,36.09a178.88,178.88,0,0,0,2.37,20c1.23,6.56,2.92,13,4.65,19.49q5.37,20.1,10.75,40.2l2.64,9.88c.83,3.11,5.66,1.79,4.82-1.33l-11.08-41.45c-3.54-13.23-7.33-26.39-8.61-40.07-1.23-13.21-1.36-26.68-5.78-39.34a77.26,77.26,0,0,0-18-28.86c-8.88-8.94-19.93-15.74-32.57-17.42a77.53,77.53,0,0,0-36.08,4.36,73.21,73.21,0,0,0-29.55,19.52A66.44,66.44,0,0,0,180,262.33a61.46,61.46,0,0,0-1,18c.58,6.58,1.88,13.24,1.13,19.86-.73,6.4-4.56,11.78-5.89,18-1.41,6.6-.69,13.33-.41,20a60.82,60.82,0,0,1-.25,9.73,2.51,2.51,0,0,0,2.5,2.5,2.57,2.57,0,0,0,2.5-2.5Z"/>
      <path class="cls-3" d="M327,342c4.72-.14,9.69-.37,14.16,1.45a13,13,0,0,1,4.69,3.2,14.33,14.33,0,0,1,2.81,5.59,132.6,132.6,0,0,1,4.91,25.37c.53,4.76.9,9.54,1.06,14.33.11,3.21,5.12,3.22,5,0a193.19,193.19,0,0,0-3.08-28.29,103.53,103.53,0,0,0-3.19-13.14c-1.57-4.82-4.28-8.76-8.92-11C339,336.79,333,336.79,327,337c-3.21.09-3.23,5.09,0,5Z"/>
      <path class="cls-3" d="M299.23,411.1c2.22-9.71,6.39-20.24,15.32-25.62,5-3,10.92-4,16.68-4.33,3-.19,6-.3,9-.27a12.15,12.15,0,0,1,4.06.55,7.67,7.67,0,0,1,3,2.24c2.12,2.36,3.91,5.07,5.83,7.6s4,5.24,5.93,7.9c3.72,5.1,6.94,10.4,8.48,16.58,1.61,6.44,2.17,13.16,3.06,19.73.92,6.86,1.85,13.72,2.75,20.58,2.06,15.52,3.92,31.08,4.63,46.73.15,3.2,5.15,3.22,5,0-.66-14.66-2.34-29.25-4.24-43.79-.94-7.19-1.92-14.38-2.88-21.56s-1.6-14.24-3.08-21.2a48.83,48.83,0,0,0-8.36-18.14c-4-5.67-8.25-11.25-12.54-16.71a12.88,12.88,0,0,0-7.64-5.14c-3.19-.62-6.53-.36-9.76-.26-6.49.22-13.07.87-19.09,3.46-12.17,5.24-18.18,18.1-21,30.32-.72,3.13,4.1,4.47,4.82,1.33Z"/>
      <path class="cls-3" d="M251.45,439.09c13-17.18,34.87-26.87,56.26-26.36a63.72,63.72,0,0,1,15.76,2.36c5.41,1.53,10.87,3.79,15.18,7.49,4.69,4,7.16,9.33,8.52,15.27a182.84,182.84,0,0,1,2.91,20.46,496.36,496.36,0,0,1,3,50.4c0,3.22,5,3.22,5,0q-.19-23.52-2.61-46.95c-.77-7.45-1.54-15-2.87-22.33-1.19-6.56-3.37-12.95-7.9-18-4.24-4.69-10-7.77-15.86-9.9A66.46,66.46,0,0,0,311.68,408,74.08,74.08,0,0,0,278,413.19a72.61,72.61,0,0,0-30.88,23.38A2.5,2.5,0,0,0,248,440a2.56,2.56,0,0,0,3.42-.9Z"/>
      <path class="cls-3" d="M270,549.84c8.44-3.07,11.26-12.61,13.74-20.31a211.14,211.14,0,0,0,7-28.17q1.46-8.24,2.27-16.57l-4.91.66L294,511.68c1.89,8.44,3.49,17.05,6.75,25.1a2.58,2.58,0,0,0,3.08,1.74,2.51,2.51,0,0,0,1.74-3.07c-3.26-8.05-4.86-16.66-6.75-25.1L293,484.13a2.48,2.48,0,0,0-2.74-1.8,2.56,2.56,0,0,0-2.17,2.46,207.82,207.82,0,0,1-4.41,26.58q-1.56,6.68-3.54,13.23A117.07,117.07,0,0,1,276,536.7c-1.37,3.18-3.86,7.07-7.28,8.32A2.57,2.57,0,0,0,267,548.1a2.51,2.51,0,0,0,3.07,1.74Z"/>
      <path class="cls-3" d="M352.79,510.18c.89,1.87-.43,4.81-2.42,5.63a4.93,4.93,0,0,1-2.31.23,8.82,8.82,0,0,0-3.64.51c-1.83.74-2.95,2.28-4,3.85a5.15,5.15,0,0,1-3.71,2.29c-2.22.47-4.41,1-6.58,1.66-4.53,1.42-8.87,3.32-13.3,5-4.66,1.79-9.76,3.5-14.81,2.52a2.56,2.56,0,0,0-3.07,1.75,2.51,2.51,0,0,0,1.75,3.07c10.69,2.07,20.49-4.26,30.31-7.4,2.38-.76,4.78-1.3,7.22-1.84a9.43,9.43,0,0,0,5.82-3.59c1-1.35,1.57-2.84,3.42-2.85,2.24,0,4.26,0,6.2-1.34a9.58,9.58,0,0,0,3.48-12,2.52,2.52,0,0,0-3.42-.9,2.56,2.56,0,0,0-.9,3.42Z"/>
      <path class="cls-3" d="M380.88,501.64a14.53,14.53,0,0,1-3.3,4.39c-1.6,1.26-2.89.61-4.75.24a12.94,12.94,0,0,0-7,.89c-2,.71-4.15,1.45-6.19.46a2.56,2.56,0,0,0-3.42.89,2.51,2.51,0,0,0,.89,3.42,11.53,11.53,0,0,0,8.89.45c1.22-.39,2.41-.89,3.67-1.19a7.09,7.09,0,0,1,3.53.32c5.71,1.39,9.46-2.81,12-7.35,1.58-2.8-2.73-5.33-4.32-2.52Z"/>
      <path class="cls-3" d="M261.37,446.67c3.51-.22,4.53-3.73,5.16-6.62s1-6.47,3.49-8.47c1.4-1.14,4.78-1.41,4.83,1.13,0,1.51-1.09,2.94-1.81,4.2a9.76,9.76,0,0,0-1.56,5.18c.19,3.49,3.44,5.54,6.55,3.74A10.26,10.26,0,0,0,281,442.9c.61-.8,1.78-2.67,3-2.45.79.13.38,1.26,0,1.8-.79,1.27-2.31,2-3.39,3s-2.15,2.75-1.06,4.29c1,1.38,2.86,1.31,4.29.8a35.45,35.45,0,0,0,4.66-2.62,3.75,3.75,0,0,1,2.62-.66c.31.09.91.42.92.82,0,.9-2.91,1.54-3.53,1.77L282.13,452c-1,.37-1.9,1.71-1.12,2.76a7.68,7.68,0,0,0,4.82,3,17.75,17.75,0,0,0,3,.31c.48,0,1,0,1.46,0a4.75,4.75,0,0,1,1.18.19l-.07-.5-.27.2a5.16,5.16,0,0,0-.72.44,7.36,7.36,0,0,1-1.5.64,19.57,19.57,0,0,1-3.41.47c-2.2.26-4.5,1.47-4.83,3.89-.3,2.19,1.34,4,3.26,4.75a14.69,14.69,0,0,0,3,.65,12.3,12.3,0,0,0,1.49.36s-.11-.87.09-.74c0,0-.46.36-.49.38a10.14,10.14,0,0,1-2.78.82l-4,1c-2.5.63-5,1.31-7.51,1.83-4.41.9-10.25.95-12.73-3.58-1.16-2.11-4.4-.22-3.24,1.9,2.42,4.41,7.61,6.16,12.4,5.92a46.2,46.2,0,0,0,8.81-1.63c2.88-.73,5.77-1.43,8.64-2.17,2-.51,4.49-1.7,4.49-4.1,0-3-3.4-3.43-5.64-3.83-.45-.07-2.17-.36-2.12-1.06s2.39-.74,2.91-.79c2.45-.22,5.34-1.06,7-3a3.22,3.22,0,0,0,.16-4.06,4.59,4.59,0,0,0-3.79-1.76c-2-.08-5.06.4-6.44-1.48l-1.13,2.75c2.95-1.07,5.95-2,8.86-3.21,2.4-1,4.54-3,3.6-5.78s-4.05-3.78-6.68-3.07A14,14,0,0,0,285,445.5c-.56.36-1.12.72-1.71,1-.26.13-.58.21-.83.35l-.38.11c-.47-.06-.23.22.74.82l-.26.95c.49-1,1.72-1.66,2.55-2.34a8.5,8.5,0,0,0,2.28-2.57c1.07-2,1.06-4.72-.83-6.24s-4.45-.91-6.25.45a11.32,11.32,0,0,0-2.17,2.36,6.62,6.62,0,0,1-2.14,2.23c-.86.39-.88-.54-.8-1.23a10.67,10.67,0,0,1,1.69-3.73c1.28-2.25,2.32-4.94,1.11-7.45-2-4.19-7.69-4-10.76-1.23a13.6,13.6,0,0,0-3.68,6.91c-.39,1.56-.65,3.14-1.05,4.7-.13.47-.48,2.26-1.18,2.3-2.39.15-2.41,3.9,0,3.75Z"/>
      <path class="cls-3" d="M261.92,283a9.26,9.26,0,0,0-3.07,8.37c.31,2.77,1.5,7,4.57,7.81s4.74-2.35,5.42-4.74a17.36,17.36,0,0,0-.15-10,3.7,3.7,0,0,0-3.19-3,6.08,6.08,0,0,0-4.63,1.39c-.63.5.26,1.38.88.88a4.83,4.83,0,0,1,3.4-1.06c1.63.14,2.11,1.25,2.51,2.65a16.25,16.25,0,0,1,.23,7.81c-.4,1.79-1.48,5.44-4,4.89a4.16,4.16,0,0,1-2.61-2.61,13.82,13.82,0,0,1-1.17-4,8.12,8.12,0,0,1,2.7-7.48c.63-.51-.26-1.38-.88-.89Z"/>
      <path class="cls-3" d="M237.88,284.64c-2.86-.91-4.53,2.68-5.33,4.79-.93,2.47-1.54,5.79-.59,8.36a4.38,4.38,0,0,0,6,2.54c2.65-1.25,3-4.74,2.94-7.32a17.18,17.18,0,0,0-.76-5,4.73,4.73,0,0,0-2.39-3.14c-.73-.31-1.37.77-.63,1.08,1.93.82,2.28,3.76,2.45,5.57a16.77,16.77,0,0,1,0,3.47,7.17,7.17,0,0,1-.95,3.26,3.09,3.09,0,0,1-5.21-.37c-1-1.86-.6-4.56-.09-6.51a13.87,13.87,0,0,1,1.35-3.4c.58-1.06,1.51-2.55,2.93-2.09.77.24,1.1-1,.34-1.21Z"/>
      <path class="cls-3" d="M243.23,310.49c.2.64-.27,1.18-.62,1.69a15.29,15.29,0,0,0-1.45,2.38,13.33,13.33,0,0,0-1.37,5.17c-.07,3.4,2.88,6.9,6.51,5.6a7.79,7.79,0,0,0,3.59-3.27,12.11,12.11,0,0,1,1.25-1.73,8.21,8.21,0,0,1,.66-.54c.06-.06.18-.05.24-.09s-.15-.26-.13-.11a5.78,5.78,0,0,0,2.09,4,4.89,4.89,0,0,0,4.59.74,6.33,6.33,0,0,0,3.55-3.82,10.4,10.4,0,0,0,.7-2.91,7.62,7.62,0,0,0,0-1.51,7.8,7.8,0,0,1-.26-1.48L262,315.9c-.27.3-.22-.11-.07.21a3.57,3.57,0,0,0,.44.52,7.17,7.17,0,0,0,1.19,1.21A5.45,5.45,0,0,0,267,319c2.67-.06,3.48-2.7,3.52-5a6.13,6.13,0,0,0-3.15-5.6c-1.19-.68-2.47-1.22-3.7-1.82-.51-.25-2.07-.82-2.12-1.54-.16-2.4-3.91-2.41-3.75,0s1.93,3.78,4,4.78c1.17.57,2.38,1.1,3.53,1.72a2.4,2.4,0,0,1,1.46,2.11,4.45,4.45,0,0,1-.11,1.26c0-.06-.19.68-.19.68l.53-.37h-.25a3.72,3.72,0,0,1-1.11-.59c-.41-.39-.67-.9-1.1-1.29-1.65-1.5-5.6-1.53-5.68,1.39a8.35,8.35,0,0,0,.29,1.57,4.73,4.73,0,0,1-.15,1.83,4.26,4.26,0,0,1-1.22,2.42c-1.92,1.46-2.1-2.06-2.61-2.94-1.29-2.24-4.16-2-6-.54a10.26,10.26,0,0,0-2,2.36c-.5.76-1.07,1.95-2,2.32s-1.42-.5-1.58-1.24a7,7,0,0,1,.68-3.74c1-2.49,3.48-4.33,2.58-7.28-.7-2.3-4.32-1.32-3.62,1Z"/>
      <path class="cls-3" d="M284.76,318.27c-5.31,1.29-9.87,4.66-14.45,7.47a89.67,89.67,0,0,1-14.76,7.71,37.68,37.68,0,0,1-15.74,2.63c-2.6-.15-5.21-.27-7.63.86a6.79,6.79,0,0,0-4,4.85c-.82,4.92,4.4,9.19,8.2,11.33,4.78,2.7,10.56,2.44,15.87,2.15,10-.55,20.6-3.61,26.35-12.45a39,39,0,0,1,2.26-3.43,16.17,16.17,0,0,1,3-2.69,21.06,21.06,0,0,0,5.81-5.75,13.09,13.09,0,0,0,2-8c-.33-2.71-2.52-5.39-5.5-5a1.94,1.94,0,0,0-1.87,1.88,1.88,1.88,0,0,0,1.87,1.87c2.29-.28,1.88,3,1.52,4.36a11.12,11.12,0,0,1-2.94,5.14c-1.51,1.48-3.34,2.59-4.94,4a22.22,22.22,0,0,0-4.09,5.25c-4.73,7.54-13.6,10.38-22.06,11-2.45.19-4.92.25-7.38.21a17.41,17.41,0,0,1-6.75-1.13,18,18,0,0,1-5.11-3.54c-1.21-1.14-3.11-3-2.45-4.9.59-1.64,2.68-2.24,4.23-2.33,2.34-.14,4.67.24,7,.16a42.46,42.46,0,0,0,14-3.08,94.28,94.28,0,0,0,14.42-7.48c4.49-2.73,9-6.2,14.15-7.45,2.35-.57,1.35-4.19-1-3.62Z"/>
      <path class="cls-3" d="M277.14,328.69A49.07,49.07,0,0,1,262,340.13a46.72,46.72,0,0,1-8.84,3.22c-3.48.89-7.1,1.39-10.62.4-2.33-.66-3.32,2.95-1,3.61,7.14,2,15.14-.63,21.62-3.64a51.85,51.85,0,0,0,16.67-12.38c1.61-1.79-1-4.45-2.65-2.65Z"/>
      <path class="cls-3" d="M235.83,294.86l-.06.07,1.33-.55.45.19c.47.26.58.28.36.08,0,0-.18-.28,0,0s-.16-.29-.15-.3.15.44,0,.05c0-.07-.05-.14-.07-.21s-.1-.38-.14-.57-.08-.38-.12-.57,0-.24,0-.36c0,0,0,.27,0,0,0-.46-.09-.91-.1-1.37s0-.85,0-1.28c0-.21,0-.42.05-.63l0-.27c0,.33,0-.07,0-.14a2.1,2.1,0,0,1,.11-.51s-.26.36-.22.32a1,1,0,0,1-.28.18,1.14,1.14,0,0,1-.36.1c-.35,0-.29-.05-.13,0a.84.84,0,0,1-.38-.21c.16.14,0,.05,0-.06,0,.09.1.18.14.27s-.08-.29-.06-.1.1.35.14.52c.08.39.15.78.22,1.18,0,.06,0,.4,0,.15s0,.05,0,.08c0,.19,0,.38.05.57a9.74,9.74,0,0,1,0,1.21c0,.18,0,.37,0,.56s0-.09,0-.11,0,.21-.06.31a5.29,5.29,0,0,1-.13.54,1.87,1.87,0,0,1-.07.22s-.17.45-.07.22,0,0,0,.07-.09.19-.15.28-.1.18-.16.27-.17.24,0,.06l0,.06-.22.21c.07-.06.29-.17,0,0s-.14.05,0,0c-.14.05-.26,0,0,0-.23,0-.11,0,0,0s.24.2,0,0c.1.09.22.2.06,0s0,.06,0,.06a1.4,1.4,0,0,1-.15-.24c-.05-.08-.27-.55-.14-.24-.1-.24-.14-.5-.24-.74s0,0,0,.08c0-.14,0-.28,0-.42s0,.16,0,.14.16-.46,0-.19,0,0,0,0c-.33.43.24-.17-.19.15a1.88,1.88,0,1,0-1.89-3.24,4,4,0,0,0-1.53,2,4.61,4.61,0,0,0-.06,2.39,5.34,5.34,0,0,0,2.17,3.46,3.82,3.82,0,0,0,4.64-.83,7,7,0,0,0,1.71-3.53,13.15,13.15,0,0,0,0-4.2,7,7,0,0,0-1.25-3.67,3,3,0,0,0-4.43-.16,3.79,3.79,0,0,0-.81,2,17.89,17.89,0,0,0-.23,2.31,14.4,14.4,0,0,0,.52,4.48,5.53,5.53,0,0,0,1.16,2.16,2.19,2.19,0,0,0,3.28.26,1.88,1.88,0,1,0-2.66-2.65Z"/>
      <path class="cls-3" d="M266.86,282.56a4,4,0,0,0-5.19,1.65,12.84,12.84,0,0,0-1.12,2.37,12.62,12.62,0,0,0-.73,2.43,8,8,0,0,0,.62,5.19,5.72,5.72,0,0,0,3.55,3,2.79,2.79,0,0,0,2.89-.74,8,8,0,0,0,1.31-2.52,12.2,12.2,0,0,0,.78-5,4.68,4.68,0,0,0-2.07-4.1,3.61,3.61,0,0,0-4.89,2,11.48,11.48,0,0,0-.58,6.12c.22,1.81.28,4.48,2.13,5.45a1.88,1.88,0,1,0,1.89-3.24c-.26-.14-.14-.18.21.27-.06-.08,0-.2-.05-.07s0-.09,0-.17a2,2,0,0,1-.05-.24c-.13-.59-.22-1.2-.31-1.8a15.06,15.06,0,0,1-.15-3.25,7.55,7.55,0,0,1,.25-1.26c.07-.31.06-.2,0-.1a2.27,2.27,0,0,1,.19-.34c-.1.15,0,0,0,0s.09-.09,0,0l-.09,0,.09,0c.23-.05.12-.06-.33,0,.06,0,.25.11.05,0s-.35-.25-.19-.1-.05-.06-.06-.08.1.18.15.27c-.05-.1-.08-.31,0,0,0,.13.13.7.09.29a8.67,8.67,0,0,1-.18,2.95,10.8,10.8,0,0,1-.44,1.47c-.09.22-.12.29-.26.57l-.15.29L264,294l.09-.11.52-.15c.58-.08.69-.15.35-.19a2.41,2.41,0,0,0-.25-.08c-.28-.09.22.13,0,0l-.22-.13c-.3-.16-.11-.07,0,0l-.25-.24-.18-.19c-.12-.14.08.16-.08-.11s-.21-.36-.3-.55.07.24,0,0l-.09-.26c0-.08-.16-.74-.11-.37a5.55,5.55,0,0,1,0-.91,10.36,10.36,0,0,1,.86-3.26c.11-.25.23-.51.35-.75l.21-.36s.18-.25.06-.11a2,2,0,0,1,.29-.29c-.22.16.23-.06.05,0s.14,0,.14,0a.66.66,0,0,1-.37-.05,1.94,1.94,0,0,0,2.57-.68,1.88,1.88,0,0,0-.68-2.56Z"/>
      <path class="cls-3" d="M237.75,241.62c-8.61,1.14-15.62,6.53-20.38,13.62-5,7.41-7.33,16.27-9,24.95-.91,4.74-1.65,9.52-2.64,14.25-.5,2.41-1.07,4.79-1.74,7.15a17.06,17.06,0,0,0,.18,13.63,16.72,16.72,0,0,1,.5,6.34,27.09,27.09,0,0,0,0,7.14c.41,2.25,1.46,4.32,1.93,6.56,1.07,5.18-.23,10.6,1.46,15.72s5.92,8.82,11.44,8a2.5,2.5,0,0,0-1.33-4.82c-3.61.54-5.38-4-5.85-6.76-.73-4.29,0-8.69-.81-13-.39-2.11-1.3-4.05-1.82-6.12a18.21,18.21,0,0,1-.1-6,23.62,23.62,0,0,0-.14-6.45c-.37-2-1.22-3.87-1.65-5.85a11.8,11.8,0,0,1,.61-5.7c.6-2.11,1.18-4.23,1.67-6.37,1-4.33,1.7-8.71,2.48-13.07,1.44-8,3.08-16.15,6.91-23.38,3.71-7,10-13.7,18.25-14.79a2.58,2.58,0,0,0,2.5-2.5c0-1.21-1.15-2.68-2.5-2.5Z"/>
      <path class="cls-3" d="M217.82,358.69a57.51,57.51,0,0,0,72.08-6.14c2.33-2.23-1.21-5.76-3.53-3.54a52.57,52.57,0,0,1-66,5.37c-2.67-1.82-5.17,2.52-2.52,4.31Z"/>
      <path class="cls-3" d="M289.88,352a48.71,48.71,0,0,0,14.91-31.88c.39-6.61-1.33-12.84-3.67-19-2.15-5.61-4.41-11.09-5.38-17.06s-1.59-12.51-6.06-17.21c-2.23-2.34-5.76,1.2-3.54,3.53,3.38,3.56,3.85,8.86,4.55,13.49a75.11,75.11,0,0,0,4.73,16.34c2.12,5.4,4.25,10.9,4.42,16.76a40.62,40.62,0,0,1-3.3,16.7,44.05,44.05,0,0,1-10.19,14.75c-2.33,2.24,1.21,5.77,3.53,3.54Z"/>
      <path class="cls-3" d="M238.06,246.94c8.2-1.19,16.88-2.41,25-.31,7.66,2,13.35,7.21,17.64,13.67a105,105,0,0,1,6.45,11.54c1.44,2.88,5.75.35,4.32-2.53-3.7-7.42-7.8-15.06-14.13-20.61-7-6.09-15.75-8.29-24.85-8.16a121.16,121.16,0,0,0-15.79,1.58A2.52,2.52,0,0,0,235,245.2a2.55,2.55,0,0,0,3.07,1.74Z"/>
      <path class="cls-3" d="M270.29,544.25c-17.74,8.7-40.32,9.48-57-2.15s-23.83-32.43-25.49-51.79c-1.18-13.79-.06-27.63,1.06-41.38a2.52,2.52,0,0,0-2.5-2.5,2.55,2.55,0,0,0-2.5,2.5c-1.94,23.91-3.69,48.85,6.19,71.38,4.06,9.25,10.08,17.85,18.07,24.13a54.3,54.3,0,0,0,29.66,11.21,68.5,68.5,0,0,0,35-7.08,2.5,2.5,0,1,0-2.52-4.32Z"/>
      <path class="cls-3" d="M299.35,533.28c2.17,9.89,5,21.18,13.24,27.85,4.81,3.88,10.63,5.39,16.63,6.3,7,1.06,14,1.93,21.08,2.66q21,2.17,42.12,2.49c13.13.19,26.56.15,39.31-3.37,6.13-1.69,15.07-4.19,15.84-11.73a7.51,7.51,0,0,0-4.73-7.61c-3.39-1.48-6.84-.67-10.37-1.15l-.67,4.91a33.18,33.18,0,0,0,10.56-.69c3-.69,6.52-2.27,6.09-6-.33-3-3.13-4.94-5.71-5.9a35.38,35.38,0,0,0-10.11-1.73v5c2.58,0,5.38-.13,7.62-1.57a7.15,7.15,0,0,0,3.35-6c-.08-6.31-8.71-6.6-13.26-6.09l1.26,4.66c3.47-1.48,12.4-4.71,9-10-1.33-2-4.2-2.64-6.43-3a24,24,0,0,0-8.41.17l1.33,4.82a6.42,6.42,0,0,0,4.54-6,7.21,7.21,0,0,0-3.83-6.63c-5.94-3.31-11.82.71-17.35,2.8a52.75,52.75,0,0,1-35.7.56c-6.71-2.31-12.62-6.67-19.83-7.37a2.52,2.52,0,0,0-2.5,2.5,2.56,2.56,0,0,0,2.5,2.5c5.47.53,10.32,3.89,15.29,6a56.08,56.08,0,0,0,16.43,4,57.4,57.4,0,0,0,16.9-.95,53.15,53.15,0,0,0,8-2.31c2.66-1,5.16-2.4,7.85-3.32,2-.69,4.83-1.23,6.56.44a4,4,0,0,1,.52.72,2.17,2.17,0,0,1-.24,2,.9.9,0,0,1-.51.29c-3.13.85-1.79,5.42,1.33,4.82a18.11,18.11,0,0,1,5.09-.24,16.31,16.31,0,0,1,2.4.43c.24,0,1.78.7,1.88.64s-1.5-4.24-.14-.75c-.09-.25.45-.36-.16,0s-1.44.85-2.17,1.24c-1.6.85-3.22,1.62-4.88,2.33-2.24,1-1.14,4.93,1.26,4.65a19.93,19.93,0,0,1,5.72.09,7.32,7.32,0,0,1,2.31.62.46.46,0,0,1,.23.38c.1,2.52-4,2.51-6,2.52-3.24,0-3.2,4.82,0,5a38.42,38.42,0,0,1,7.22,1.1,7.78,7.78,0,0,1,2.58,1,3.7,3.7,0,0,1,.85.73s.21.35.22.35c.42.25-.53-.24.13-.3,0,0-.76.4-.86.44a20.18,20.18,0,0,1-3.6.82,29.32,29.32,0,0,1-7.37.15c-2.77-.27-3.45,4.53-.66,4.91a34.4,34.4,0,0,0,4.87.26,14.51,14.51,0,0,1,3.89.3c1.85.5,3.22,1.76,2.52,3.78-.77,2.22-3.15,3.39-5.18,4.22a61.34,61.34,0,0,1-8.37,2.69c-11.72,3-23.95,3-35.95,2.8q-19.64-.27-39.19-2.16-9.5-.91-18.94-2.21c-5.69-.79-11.86-1.35-16.86-4.4-9-5.5-11.65-17.29-13.76-26.87-.69-3.14-5.51-1.81-4.82,1.33Z"/>
      <path class="cls-3" d="M380.3,503.56c7.44,5.21,16.84,6.13,25.66,6,5-.06,10-.4,15.06-.23,1.21,0,2.42.11,3.63.22.82.07,1.89.4,2.66.38.26.18.34.21.23.1a1.23,1.23,0,0,1,0-1.51c-.06,0-.92.56-1,.6l-3.49,1.93c-2.06,1.14-1.27,4.92,1.26,4.66a4,4,0,0,1,3.09.9,2.52,2.52,0,0,0,3.42-.9,2.56,2.56,0,0,0-.9-3.42,8,8,0,0,0-5.61-1.58l1.26,4.66c1.78-1,4.06-1.84,5.5-3.31a3.9,3.9,0,0,0,.08-5.46c-1.35-1.4-3.24-1.68-5.07-1.9a63.89,63.89,0,0,0-6.77-.41c-8.28-.1-16.69,1-24.9-.46a29,29,0,0,1-11.61-4.59,2.51,2.51,0,0,0-3.42.89,2.55,2.55,0,0,0,.9,3.42Z"/>
      <path class="cls-3" d="M263.22,282.73a4.67,4.67,0,0,0-3.49,2.14,7.33,7.33,0,0,0-1.22,3.53,6.28,6.28,0,0,0,3.11,6,1.89,1.89,0,0,0,2.56-.67,1.91,1.91,0,0,0-.67-2.57l-.21-.12s-.34-.25-.11-.06,0,0,0,0l-.22-.21-.16-.18c-.18-.18,0,0,.06.1a3.89,3.89,0,0,0-.29-.46l-.14-.27s.15.4.05.11a4.48,4.48,0,0,1-.16-.52c0-.08,0-.16-.05-.24-.06-.23,0,.37,0,0s0-.41,0-.62,0-.18,0-.28-.08.34,0,.09.09-.41.15-.61.08-.22.11-.33-.15.29,0,.06.18-.36.28-.54l.13-.21c.18-.28-.18.2,0,0l.34-.36c.15-.16-.32.2,0,0l.21-.12c.28-.16-.27.06-.07,0s.43-.06-.08,0a1.92,1.92,0,0,0,1.87-1.88,1.89,1.89,0,0,0-1.87-1.87Z"/>
      <path class="cls-3" d="M236.36,294.61c-.14-1-.25-2-.43-3,.1.54,0-.2,0-.32s-.06-.47,0-.54l0,.23a1.33,1.33,0,0,1,0-.19c.1-.36,0,0,0,0a1.07,1.07,0,0,1,.13-.21c-.17.21-.2.26-.11.16l.13-.13c.23-.23-.08.09-.11.08l.24-.17.46-.29a7.07,7.07,0,0,0,1.25-.92,3.12,3.12,0,0,0,.91-1.59,2.48,2.48,0,0,0-1.14-2.61,4.74,4.74,0,0,0-5.85,1.14,8,8,0,0,0-1.69,5.81,4.84,4.84,0,0,0,1.54,3.38,3.77,3.77,0,0,0,4.14.56,1.88,1.88,0,0,0,.68-2.56,1.94,1.94,0,0,0-2.57-.68c.42-.19.24-.09.12-.07.05,0,.46,0,.16,0s.46,0,0,0c-.17,0,.15.06.17.08a1,1,0,0,0-.21-.11c-.18-.09,0-.16.09.08a1.29,1.29,0,0,0-.17-.16c-.25-.23.08.05.07.1l-.14-.24c-.16-.24.09,0,0,.08a.82.82,0,0,0-.06-.19c0-.09,0-.39-.1-.46.11.13,0,.33,0,.09s0-.23,0-.35c0-.34,0-.69,0-1,0,0,0-.29,0,0s0,0,0-.1a5.23,5.23,0,0,1,.12-.54c0-.15.09-.3.14-.45.12-.36,0,.06,0,.06s.1-.21.12-.24.17-.27.24-.41-.22.24,0,.05.13-.16.21-.23a1.66,1.66,0,0,0,.14-.13c.17-.17-.3.19-.09.07l.38-.23c.32-.2-.11.06-.11,0l.23-.08.18,0c.41-.1-.06,0-.07,0s.61.06.23,0,.19.08.22.07c-.21.05-.29-.18-.11-.05a1.2,1.2,0,0,1-.52-1.44c0-.06.2-.37,0-.09.06-.1.22-.25.05-.11l-.18.16s.39-.27.1-.08l-.36.23c-.27.17-.54.33-.8.52a4.28,4.28,0,0,0-1.7,2.29,7.2,7.2,0,0,0,0,3c.13.92.26,1.84.4,2.76a1.85,1.85,0,0,0,.86,1.13,1.9,1.9,0,0,0,1.44.18,1.92,1.92,0,0,0,1.31-2.3Z"/>
      <path class="cls-3" d="M263.57,282.12c-1.55-.09-2.43,1.24-3,2.45a31,31,0,0,0-1.47,3.41c-.85,2.38-.63,5.39,1.78,6.77a1.88,1.88,0,0,0,1.89-3.24,1.64,1.64,0,0,1-.22-.14c.2.17.23.18.08,0s-.12-.12,0,.08a1.64,1.64,0,0,1-.14-.22,1,1,0,0,1-.12-.23c.1.24.11.27,0,.07a2.33,2.33,0,0,1-.07-.25c0-.21,0-.18,0,.1a1.67,1.67,0,0,1,0-.59c0-.11.09-.56,0-.14a8.87,8.87,0,0,1,.34-1.25c.07-.2.15-.41.23-.61s.3-.7.13-.32c.16-.36.32-.71.49-1.06s.38-.81.6-1.2c.06-.1.39-.54.06-.14.15-.14.11-.12-.1.06-.67.1-.84.16-.51.16a1.88,1.88,0,0,0,1.88-1.87,1.92,1.92,0,0,0-1.88-1.88Z"/>
      <path class="cls-3" d="M231.78,282.11a7.8,7.8,0,0,1-3.26.63c-.52,0-.59-.21.09.46l.49.49v-.19s-.09.28,0,0,0,0,0,0a1.54,1.54,0,0,1,.67-.69,5.48,5.48,0,0,1,2.6-.6,24,24,0,0,0,4-.31c1.2-.25,2.33-.72,3.51-1a5.09,5.09,0,0,1,1.17-.14s-.2-.18-.21-.2c-.13-.23.07-.39-.08-.14.13-.21,0,0-.07,0l-.38.22a8,8,0,0,1-1.72.35,15,15,0,0,0-3.33,1,11.92,11.92,0,0,1-1.74.6,2,2,0,0,1-.69.08c-.46,0-.07,0-.09,0-.41.05,0-.15,0,.1l-.49,1.82.19,0c-.15,0,.27,0,.24,0l1.11-.05a14.81,14.81,0,0,1,2,.11,1.93,1.93,0,0,0,2.31-1.31,1.88,1.88,0,0,0-1.31-2.3,20.56,20.56,0,0,0-3.14-.25,6.89,6.89,0,0,0-3,.49,2.59,2.59,0,0,0-1.26,3,3.08,3.08,0,0,0,2.36,2.11c1.92.44,3.71-.4,5.44-1.09s3.8-.57,5.42-1.61a3.8,3.8,0,0,0,1.38-5.18c-1.24-1.9-3.73-1.61-5.61-1.1-.92.25-1.81.58-2.73.8a13.32,13.32,0,0,1-2.82.23,9.29,9.29,0,0,0-5.26,1.35c-1.68,1.21-3.2,3.9-1.52,5.75,1.51,1.69,4.9.92,6.73.18a1.94,1.94,0,0,0,1.31-2.31,1.9,1.9,0,0,0-2.31-1.31Z"/>
      <path class="cls-3" d="M259.45,279.24h-2.57a7.09,7.09,0,0,1-2.22-.06l.83.49c-.24-.19-.05.1-.14-.18,0,0-.21-.38-.17-.42a.54.54,0,0,1-.2.6c-.26.27-.27.32,0,.15-.11.05-.1.05,0,0l.36-.1a11.73,11.73,0,0,1,3-.21c1.05,0,2.1.05,3.15,0a19.89,19.89,0,0,0,3.42-.59,6.88,6.88,0,0,1,1.2-.23s.7,0,.34,0c.08,0,.53,0,.27.05.2.14.21.12,0-.06a.42.42,0,0,1-.2-.27c.22.59-.05-.62,0-.54s-.18.13-.1.1a3.27,3.27,0,0,1-.76.2c-1,.21-2.12.15-3.16.3a8.61,8.61,0,0,0-1.42.33c-.11,0-.61.19-.61.17s.76.54.38.06a1.87,1.87,0,0,0-2.65,2.65c1.09,1.38,2.81,1,4.26.61s2.81-.21,4.2-.5a4.35,4.35,0,0,0,3.45-2.78,3.16,3.16,0,0,0-2.21-3.81,7.73,7.73,0,0,0-4.26.21,16,16,0,0,1-4.08.43c-2.52,0-7.25-.48-8,2.74a3.86,3.86,0,0,0,2.47,4.38,11.3,11.3,0,0,0,2.73.08h2.71c2.41,0,2.42-3.76,0-3.75Z"/>
      <path class="cls-3" d="M267.23,279.74a5.87,5.87,0,0,0,2.13,2,3.17,3.17,0,0,0,1.71.36,3.47,3.47,0,0,0,1.8-.69,2.74,2.74,0,0,0,.69-3.63,3.88,3.88,0,0,0-2.58-1.59,12,12,0,0,0-3.49-.14,1.86,1.86,0,0,0-.95.26,1.53,1.53,0,0,0-.53.48,1.82,1.82,0,0,0-.33,1.64,4.85,4.85,0,0,0,1.49,2.31,5.11,5.11,0,0,0,1.14.75,5.81,5.81,0,0,0,.82.32,6.25,6.25,0,0,0,.95.15,1.8,1.8,0,0,0,1.33-.55,1.9,1.9,0,0,0,.55-1.32,1.88,1.88,0,0,0-.55-1.33l-.38-.29a1.86,1.86,0,0,0-.95-.26H270l.5.06a3.37,3.37,0,0,1-.77-.21l.45.19a3.11,3.11,0,0,1-.68-.4l.38.3a3.52,3.52,0,0,1-.61-.61l.29.38a3.94,3.94,0,0,1-.36-.63l.19.45c-.05-.1-.08-.21-.12-.31l-1.8,2.37a10.6,10.6,0,0,1,2.64,0l-.5-.07a4.88,4.88,0,0,1,1.14.28l-.45-.19a2.86,2.86,0,0,1,.42.24l-.38-.29a1.31,1.31,0,0,1,.23.24l-.29-.38a1.18,1.18,0,0,1,.11.19l-.19-.45a.83.83,0,0,1,.06.21l-.06-.49a.81.81,0,0,1,0,.22l.07-.5a1.46,1.46,0,0,1-.05.2l.19-.45a1,1,0,0,1-.13.23l.3-.38-.19.19.38-.3a1.68,1.68,0,0,1-.34.2l.45-.19a2,2,0,0,1-.33.09l.5-.07a1.8,1.8,0,0,1-.4,0l.5.06a2.12,2.12,0,0,1-.36-.1l.45.19a2.87,2.87,0,0,1-.48-.28l.38.29a4.92,4.92,0,0,1-.77-.81l.29.38-.21-.28a2.06,2.06,0,0,0-1.12-.87,2,2,0,0,0-1.45.19,1.89,1.89,0,0,0-.86,1.12,1.84,1.84,0,0,0,.19,1.45Z"/>
      <path class="cls-3" d="M227.34,280.27a8,8,0,0,0-5.43,4.88,3,3,0,0,0,.22,2.55,3,3,0,0,0,2.69,1.27,5.13,5.13,0,0,0,3.58-1.56,5.43,5.43,0,0,0,1.23-2,11.4,11.4,0,0,0,.25-2.25l-.07.5a2.46,2.46,0,0,1,.11-.45l-.19.45a1.48,1.48,0,0,1,.16-.27l-.3.38a1.61,1.61,0,0,1,.22-.23l-.38.3a1.22,1.22,0,0,1,.26-.16l-.44.19.14,0-.5.07h.21l-.49-.07.14,0a1.9,1.9,0,0,0,2.31-1.31,1.94,1.94,0,0,0-1.31-2.31,2.81,2.81,0,0,0-3.19,1.38,4,4,0,0,0-.45,1.72c0,.35,0,.7-.05,1l.07-.5a2.91,2.91,0,0,1-.2.73l.19-.45a3.47,3.47,0,0,1-.42.72l.3-.38a4.11,4.11,0,0,1-.59.59l.38-.3a3.85,3.85,0,0,1-.78.47l.45-.19a3.65,3.65,0,0,1-.8.22l.5-.07a3.22,3.22,0,0,1-.76,0l.5.06a1.77,1.77,0,0,1-.33-.08l.45.19a.92.92,0,0,1-.21-.13l.38.3-.12-.12.3.38-.08-.12.19.45a.83.83,0,0,1-.06-.21l.07.49a1,1,0,0,1,0-.3l-.07.5a2.24,2.24,0,0,1,.18-.61l-.19.45a6.05,6.05,0,0,1,.74-1.25l-.29.38a6.49,6.49,0,0,1,1.08-1.08l-.38.29a7,7,0,0,1,1.39-.82l-.44.19a7.52,7.52,0,0,1,.84-.28,1.89,1.89,0,0,0,1.31-2.3,1.92,1.92,0,0,0-2.31-1.31Z"/>
      <path class="cls-3" d="M210,456.84a6.21,6.21,0,0,1-1.14,0l.66.09a6.28,6.28,0,0,1-1.58-.43l.6.26a6.16,6.16,0,0,1-1.35-.8l.51.4-.28-.23a2.63,2.63,0,0,0-1.76-.73,2.53,2.53,0,0,0-1.77.73,2.49,2.49,0,0,0-.73,1.77,2.42,2.42,0,0,0,.73,1.76,9.09,9.09,0,0,0,3.09,1.81,6.75,6.75,0,0,0,1.18.28,8.77,8.77,0,0,0,1.84.13,2.66,2.66,0,0,0,1.77-.73,2.53,2.53,0,0,0,.73-1.77,2.57,2.57,0,0,0-.73-1.77,2.52,2.52,0,0,0-1.77-.73Z"/>
      <path class="cls-3" d="M288.77,497.47a149,149,0,0,0,12,45c1.79,4,3.77,8,5.91,11.81,1.57,2.82,5.89.3,4.32-2.52a142.44,142.44,0,0,1-15.35-41.9q-1.2-6.17-1.86-12.4a2.57,2.57,0,0,0-2.5-2.5,2.52,2.52,0,0,0-2.5,2.5Z"/>
      <path class="cls-3" d="M352.78,483.79l-1.43,18.37c-.32,4-.2,11-5.15,12.4-1.13.31-2.31.4-3.44.73a9.84,9.84,0,0,0-3.61,2c-1.76,1.46-3,3.4-5,4.63-4.36,2.74-9.78,2.93-14.73,3.7a57.38,57.38,0,0,0-9.27,2.57c-2,.69-4.79,1.4-6.51-.34-2.26-2.29-5.8,1.25-3.53,3.54a9.19,9.19,0,0,0,7.54,2.47c3.1-.31,5.83-1.74,8.8-2.54,5.73-1.55,11.8-1.32,17.34-3.63a19.11,19.11,0,0,0,6.76-4.76,14,14,0,0,1,2.5-2.36,10.92,10.92,0,0,1,3.66-1c6.32-1.33,8.64-7.35,9.26-13.12.81-7.53,1.2-15.12,1.79-22.66a2.51,2.51,0,0,0-2.5-2.5,2.55,2.55,0,0,0-2.5,2.5Z"/>
      <path class="cls-3" d="M350.55,462.5c2.16,10.25,2.2,20.78,2.43,31.22.1,4.7,0,9.95,3.68,13.49a10.78,10.78,0,0,0,5.66,2.9c2.61.42,5.09-.24,7.62-.88a12.11,12.11,0,0,1,3.64-.49,24.42,24.42,0,0,0,4,.17c2.8-.31,5.39-2.39,5.34-5.38-.05-3.21-5.05-3.22-5,0,0,.84-3.14.31-3.68.26a18.36,18.36,0,0,0-6.28.79c-1.77.46-3.59,1-5.41.47a5.71,5.71,0,0,1-3.35-2.65,11.73,11.73,0,0,1-1.14-5.36c-.1-2.22-.12-4.45-.16-6.68-.1-4.56-.2-9.12-.51-13.66a109.45,109.45,0,0,0-2-15.53c-.66-3.15-5.49-1.82-4.82,1.33Z"/>
    </g>
    <g id="hairs">
      <g id="hair-twentyone">
        <path class="cls-3" d="M195,236.4a7.7,7.7,0,0,0,9.59,7.12l.43-.15c.17,0,.19-.05.06-.07-.57-.21-.72-.24-.46-.08l.28.19a7.4,7.4,0,0,0,1.15.68,8.43,8.43,0,0,0,3.64.79,8.31,8.31,0,0,0,6.08-2.68,2.56,2.56,0,0,0,0-3.53,2.53,2.53,0,0,0-3.54,0,4.75,4.75,0,0,1-.38.4c-.14.14-.38.29-.09.1l-.57.35c-.18.11-.23.12,0,0a7,7,0,0,1-1.17.33c-.36.09.54,0-.11,0h-.56c-.23,0-.47,0-.1,0a4.28,4.28,0,0,1-.54-.12,4.68,4.68,0,0,1-.53-.17c.45.17,0,0-.1-.07a6,6,0,0,0-3-1.23,6.24,6.24,0,0,0-1.82.4c-.07,0-.64.18-.29.09s-.21,0-.3,0-.65,0-.3,0-.21-.06-.28-.08-.62-.19-.31-.08-.22-.11-.28-.14a6.26,6.26,0,0,1-.55-.34c.2.14.17.16,0,0l-.46-.45c-.31-.32.07.15-.06-.08l-.27-.46c-.22-.36,0,.16,0-.08a4.67,4.67,0,0,0-.14-.5c.11.41,0,.06,0-.19a2.5,2.5,0,0,0-5,0Z"/>
      </g>
      <g id="hair-twenty">
        <path class="cls-3" d="M255.89,220.49a7.48,7.48,0,0,0,2.31,6.87,7.59,7.59,0,0,0,3.38,1.82,6.61,6.61,0,0,0,1.83.17,9.71,9.71,0,0,0,1.19-.16l.57-.11c-.14,0-.12,0,.05,0s.19,0,0,0-.23-.08-.08,0,.13.08,0,0c.12.11.24.22.35.34.36.35.69.73,1.07,1.06a8.88,8.88,0,0,0,3.56,2,6.87,6.87,0,0,0,7.43-2.75,2.52,2.52,0,0,0-.9-3.42,2.55,2.55,0,0,0-3.42.9c.2-.29-.11.1-.17.16s-.12.11,0,0l-.22.13-.22.12c.18-.07.18-.08,0,0a3.3,3.3,0,0,1-.62.15c.36,0-.06,0-.21,0-.39,0,.46.15-.25,0l-.51-.14c-.55-.18.11.12-.38-.18a7.63,7.63,0,0,1-1.58-1.35,5.9,5.9,0,0,0-2.63-1.71,4.78,4.78,0,0,0-1.64-.13c-.36,0-.73.1-1.09.16-.12,0-.65.08-.29.06a5.81,5.81,0,0,1-.59,0c-.25,0,.27.12-.14,0-.05,0-.62-.23-.36-.11S262,224,262,224c-.37-.2,0,.06-.16-.1s-.29-.27-.43-.41-.22-.26-.06,0a5.6,5.6,0,0,1-.38-.61c-.1-.15-.13-.29,0,0-.07-.19-.11-.37-.17-.56s0,.31,0-.15c0-.11.07-.77,0-.27a2.58,2.58,0,0,0-1.74-3.08,2.53,2.53,0,0,0-3.08,1.75Z"/>
      </g>
      <g id="hair-nineteen">
        <path class="cls-3" d="M179.09,374.93c1.24,2.67,3.63,5,6.68,5.21a6,6,0,0,0,6.39-4.37l-4.18,1.1a8.56,8.56,0,0,0,11.33,1.53,2.57,2.57,0,0,0,.9-3.42,2.51,2.51,0,0,0-3.42-.9,6.6,6.6,0,0,1-.91.57c.2-.11.24-.08,0,0l-.51.16a4.94,4.94,0,0,1-.53.1c.24,0,.28,0,0,0h-.54c-.11,0-.63-.06-.09,0-.32,0-.63-.14-.95-.22-.1,0-.56-.22-.1,0a3.49,3.49,0,0,1-.39-.19c-.16-.08-.31-.18-.46-.27-.3-.19.37.38-.09-.07a6.75,6.75,0,0,1-.72-.79c-1.16-1.49-3.8-.59-4.18,1.1,0,0-.12.63-.07.3s-.19.21.09-.11c-.07.08-.54.47-.11.16-.11.08-.24.14-.36.22-.41.28.31,0-.19.08a3.2,3.2,0,0,0-.42.1c.52-.13-.05,0-.19,0-.44,0,.14.09-.08,0s-.39-.1-.57-.18c.31.14-.06-.06-.18-.13s-.48-.35-.19-.12c-.16-.13-.31-.28-.46-.42a6.48,6.48,0,0,1-1.2-1.91,2.52,2.52,0,0,0-3.42-.89,2.55,2.55,0,0,0-.9,3.42Z"/>
      </g>
      <g id="hair-eighteen">
        <path class="cls-3" d="M174.14,407.31a7.65,7.65,0,0,0,12.41-1.48h-4.32a6.55,6.55,0,0,0,4.45,3.43,6.84,6.84,0,0,0,5.93-1.42,2.5,2.5,0,0,0,0-3.53,2.57,2.57,0,0,0-3.54,0c.6-.48-.46.23-.09,0s-.46.22-.54.13.56,0,.14,0h-.44c-.08,0-.47-.06-.11,0s-.15-.05-.19-.05l-.34-.1c-.3-.09,0,0,.1.05l-.39-.21c-.06,0-.41-.22-.11-.05S187,404,187,404s-.15-.18-.23-.26c.2.21.18.3,0,0-.07-.14-.14-.26-.2-.4-.78-1.69-3.5-1.57-4.32,0-.08.16-.2.32-.27.48s.23-.2-.07.11a4.78,4.78,0,0,0-.39.39c-.2.25.4-.24-.1.09-.12.08-.24.16-.37.23s-.58.25-.3.15-.27.07-.33.09-.65.09-.31.07-.34,0-.33,0a3.25,3.25,0,0,1-.44,0c.52.06,0,0-.09-.05a5.43,5.43,0,0,1-.53-.17c.34.13.08,0-.1-.07a4.53,4.53,0,0,1-.46-.3c.2.14.14.13,0,0s-.31-.31-.45-.48a2.51,2.51,0,0,0-3.54,0,2.56,2.56,0,0,0,0,3.53Z"/>
      </g>
      <g id="hair-seventeen">
        <path class="cls-3" d="M230.49,431c-.27.13-.14,0,0,0,0,0-.62.18-.25.09s-.73,0-.34,0-.17-.05-.26-.07c-.26-.05-.16-.06,0,.05a9.33,9.33,0,0,0-1-.5,3.45,3.45,0,0,0-3.08.16,9,9,0,0,0-1.55,1.34,2.78,2.78,0,0,1-.28.24s.42-.28.06-.07l-.72.41c-.29.18.41-.13.09,0-.15.05-.29.11-.44.15a5.68,5.68,0,0,1-.71.18c-.47.11.33,0,0,0l-.37,0c-.18,0-.69.08-.83,0,.08.06.48.09.12,0l-.36-.08c-.19,0-1-.37-.45-.11a2.57,2.57,0,0,0-3.42.89c-.57,1.09-.38,2.86.9,3.42a9,9,0,0,0,8.69-.52,9.89,9.89,0,0,0,1.68-1.41c.13-.12.42-.31-.05,0l.15-.09a1.39,1.39,0,0,1-1.38.11c-.15-.07-.16-.07,0,0l.26.15.36.17a6.39,6.39,0,0,0,5.64-.15,2.52,2.52,0,0,0,.9-3.42,2.56,2.56,0,0,0-3.42-.89Z"/>
      </g>
      <g id="hair-sixteen">
        <path class="cls-3" d="M209.89,461a9.09,9.09,0,0,0,5.73,1.36,10.23,10.23,0,0,0,3.26-.87,6.27,6.27,0,0,0,2.53-1.78c.27-.43-1.57.4-1.68,0,0,.17.54.45.65.54a8.06,8.06,0,0,0,1.26.83,9.23,9.23,0,0,0,3.07,1,9.11,9.11,0,0,0,6.15-1.29,2.56,2.56,0,0,0,.89-3.42,2.53,2.53,0,0,0-3.42-.9,4.17,4.17,0,0,1-3.41.59c-.21,0-.42-.12-.63-.19-.39-.15.25.13-.13-.07q-.28-.15-.57-.33c-.06,0-.33-.24-.13-.08-1.05-.83-2-1.55-3.43-1.34a5.92,5.92,0,0,0-2.59,1.57,3.83,3.83,0,0,1-1.59.71,6.3,6.3,0,0,1-1.71.09,4.64,4.64,0,0,1-1.72-.7,2.5,2.5,0,0,0-2.53,4.32Z"/>
      </g>
      <g id="hair-fifteen">
        <path class="cls-3" d="M302.54,430.64a6.09,6.09,0,0,0,3.5,5.86,7.54,7.54,0,0,0,7.29-.66l.54-.39a3.4,3.4,0,0,1,.45-.28l-.5.15c-.22,0-.17,0,.14.06l.26.09.66.24a10.49,10.49,0,0,0,3,.46,6.5,6.5,0,0,0,5.65-2.87,2.5,2.5,0,1,0-4.32-2.52c-.24.36,0-.17,0,.05s-.51.24,0,0a2.74,2.74,0,0,0-.34.19c.28-.16.22-.07-.05,0l-.5.11c.21-.05.33,0,0,0s-.65,0-1,0,.38.09-.09,0l-.53-.11c-.31-.08-.61-.18-.91-.28a4.81,4.81,0,0,0-3.48-.13c-.8.32-1.43.91-2.2,1.29-.15.08-.15.08,0,0l-.24.09-.5.13c-.72.17.18,0-.23,0a3.42,3.42,0,0,1-.64,0c.28,0,0,0-.09,0-.72-.22.16.12-.18-.07-.14-.08-.44-.3-.17-.07-.12-.1-.23-.22-.34-.33.34.34-.41-.76-.17-.29-.1-.18-.08-.29-.05,0a4,4,0,0,1,0-.69,2.5,2.5,0,0,0-2.5-2.5,2.57,2.57,0,0,0-2.5,2.5Z"/>
      </g>
      <g id="hair-fourteen">
        <path class="cls-3" d="M337.36,454.33c-.06.2-.09.25,0,0-.07.14-.15.26-.22.39s-.17.23,0,0c-.1.12-.21.22-.31.33s-.23.18,0,0l-.38.24c-.18.11-.25.12,0,0a5.44,5.44,0,0,1-.54.15c-.35.09.35,0,0,0h-.47c-.38,0,.33.09,0,0l-.46-.13c-.35-.13.28.16-.05,0,0,0-.43-.25-.24-.12s-.16-.14-.2-.18-.26-.29-.39-.44c-1.08-1.33-3.11-.7-3.92.51-.38.56.19-.2-.06.1l-.36.39-.4.37c-.28.24.47-.29-.09.06-.27.17-.57.31-.84.48s.34-.1-.1,0l-.51.17-.52.13c-.26.06-.21,0,0,0a6.35,6.35,0,0,1-1.07,0c-.07,0-.66-.06-.31,0s-.3-.07-.3-.07l-.41-.11c-.08,0-.71-.29-.21-.06a2.57,2.57,0,0,0-3.42.89,2.53,2.53,0,0,0,.9,3.42,9.57,9.57,0,0,0,12-3.33l-3.92.51a6.77,6.77,0,0,0,11.68-2.52,2.52,2.52,0,0,0-1.74-3.08,2.56,2.56,0,0,0-3.08,1.75Z"/>
      </g>
      <g id="hair-thirteen">
        <path class="cls-3" d="M297.2,489.11a7.88,7.88,0,0,0,14.79,4h-4.32a8,8,0,0,0,8.76,3.39,2.52,2.52,0,0,0,1.75-3.07,2.55,2.55,0,0,0-3.08-1.75c-.16,0-.67.14-.22.09-.22,0-.45,0-.67,0-.55,0,.26.11-.24,0-.26-.06-.51-.13-.76-.21s-.15-.05.07,0l-.3-.16c-.07,0-.61-.39-.41-.24s-.28-.26-.34-.32a2.85,2.85,0,0,1-.23-.26c.16.21.16.2,0,0a2.53,2.53,0,0,0-4.32,0c-.06.11-.58.78-.24.42l-.48.47c-.37.37.22-.07-.21.15-.09,0-.9.45-.41.26a4.34,4.34,0,0,1-.64.2c-.18.05-.67.1-.22.07a6.61,6.61,0,0,1-.89,0c.44,0,0,0-.22-.06s-.71-.28-.25-.06a5.7,5.7,0,0,1-.68-.39c-.14-.1-.12-.08.06.05a3.17,3.17,0,0,1-.34-.3,5.49,5.49,0,0,1-.45-.5c.31.4-.12-.24-.17-.33s-.11-.2-.16-.3c.11.25.11.24,0,0s-.12-.43-.18-.65c.14.53,0-.3,0-.45a2.5,2.5,0,0,0-5,0Z"/>
      </g>
      <g id="hair-twelve">
        <path class="cls-3" d="M363.12,488a5.63,5.63,0,0,0,10.49,2.84l-3.92.51c1.32,1.31,3.1,2.57,5.07,2.38a4.5,4.5,0,0,0,4.31-4.27,2.52,2.52,0,0,0-2.5-2.5,2.55,2.55,0,0,0-2.5,2.5c0,.35,0-.17,0-.25s.28-.49.09-.22c.06-.09.39-.38.14-.18s.15-.12.17-.12l-.25.15c0-.1.55-.14.19-.09s.2,0,.24,0-.56-.06-.12,0-.62-.25-.19-.05,0,0-.09-.05l-.3-.18c-.05,0-.37-.28-.1-.06s0,0-.09-.09-.39-.35-.58-.54a2.53,2.53,0,0,0-3.92.51c-.27.42.4-.37,0,0l-.27.26c-.21.2.46-.28.08-.08l-.2.11c-.17.09-.09.05.25-.1-.07,0-.28.1-.36.12-.42.1,0,0,.15,0a3.38,3.38,0,0,0-.45,0c-.44,0,.42.12.14,0l-.14,0c-.18-.06-.11,0,.23.11,0-.05-.29-.15-.34-.18-.4-.25,0-.07.06.06a3.31,3.31,0,0,0-.32-.33c.16.08.29.42.07.06s0-.11,0,.1a3.73,3.73,0,0,0-.14-.44c-.13-.47,0,.56,0,0a2.5,2.5,0,0,0-5,0Z"/>
      </g>
      <g id="hair-eleven">
        <path class="cls-3" d="M337,397c-1.09,3.11,1.68,6.25,4.73,6.47s5.46-2.26,6.47-5h-4.82a9.48,9.48,0,0,0,12.78,5.34,2.51,2.51,0,0,0,.9-3.42,2.58,2.58,0,0,0-3.42-.9c.54-.23,0,0-.14,0s-.38.09-.57.14c-.55.14.41,0-.11,0l-.59,0a5.85,5.85,0,0,1-.59,0c.63.05,0,0-.11,0a5.29,5.29,0,0,1-.57-.15c-.07,0-.77-.28-.45-.14s-.26-.14-.32-.17l-.51-.3c-.07,0-.57-.43-.31-.21s-.22-.2-.27-.25a3.28,3.28,0,0,0-.4-.43c-.12-.14-.09-.09.08.13l-.17-.24-.3-.5c-.34-.54.06.24-.11-.21a2.52,2.52,0,0,0-4.82,0c.08-.24.09-.18,0,0s-.18.33-.28.49-.3.39-.14.2-.21.21-.25.25-.21.17,0,0l-.46.28c-.25.15.28,0,0,0s-.55,0-.09,0c-.31,0-.12,0,.06,0l-.39-.11c.69.25-.21-.16.13.05s-.17-.12-.13-.14c-.12-.13-.1-.09.07.12l-.11-.17c-.14-.26,0-.13,0,.06-.14-.47,0,.31,0,0s-.14.52,0,0a2.52,2.52,0,0,0-1.75-3.07A2.57,2.57,0,0,0,337,397Z"/>
      </g>
      <g id="hair-ten">
        <path class="cls-3" d="M319.16,359.62a11.79,11.79,0,0,1-5,2,12,12,0,0,1-3,0,28.74,28.74,0,0,0-2.88-.57c-1.36,0-2.12.69-3.16,1.41a4.27,4.27,0,0,1-1.43.52,3.61,3.61,0,0,1-3.33-1.33,2.5,2.5,0,1,0-3.53,3.54,8.69,8.69,0,0,0,9,2.41,9.6,9.6,0,0,0,1.64-.72c.14-.09,1.51-.95,1.46-1.1.09.28-1.56-.07-.67.32a4.91,4.91,0,0,0,.86.21,20.47,20.47,0,0,0,2.06.31,14.92,14.92,0,0,0,3.34-.07,16.42,16.42,0,0,0,7.14-2.61,2.5,2.5,0,0,0-2.53-4.32Z"/>
      </g>
      <g id="hair-nine">
        <path class="cls-3" d="M343,359.92a4.18,4.18,0,0,0-1,4.24,5.14,5.14,0,0,0,3.26,3.28,8.09,8.09,0,0,0,3.85.21l3.91-.49a2.79,2.79,0,0,0,1.77-.74,2.5,2.5,0,0,0,0-3.53,2.36,2.36,0,0,0-1.77-.73l-3.28.41a12.16,12.16,0,0,1-2.95.17l.67.09a3.88,3.88,0,0,1-1.06-.29l.6.26c-.15-.07-.28-.17-.42-.24.36.3.45.36.26.2l-.11-.11c-.37-.33.3.49.11.14-.07-.12-.14-.24-.2-.37l.26.6a2.36,2.36,0,0,1-.17-.59l.09.67a2.66,2.66,0,0,1,0-.49l-.09.67a1.51,1.51,0,0,1,.13-.46l-.26.6c.06-.11.23-.35-.05,0s-.07.1,0,0a2.5,2.5,0,0,0-3.54-3.54Z"/>
      </g>
      <g id="hair-eight">
        <path class="cls-3" d="M205.08,491.74a3,3,0,0,0,1.48,3.36,4.11,4.11,0,0,0,3.74-.1,19.62,19.62,0,0,0,5.24-3.55l-3.92-.51c2.69,4.88,9.7,6.66,14.34,3.49a2.55,2.55,0,0,0,.9-3.42,2.51,2.51,0,0,0-3.42-.9,7.06,7.06,0,0,1-.65.4c-.11.07-.8.33-.28.15a11.6,11.6,0,0,1-1.25.34c.56-.12-.06,0-.2,0h-.76c-.12,0-.89-.09-.31,0-.21,0-.43-.07-.64-.12l-.63-.18c-.15,0-.62-.23-.21-.06a8.66,8.66,0,0,1-1.33-.74c-.42-.28.22.25-.17-.14-.15-.16-.31-.3-.46-.45s-.41-.52-.16-.16a8.23,8.23,0,0,1-.46-.74,2.52,2.52,0,0,0-3.92-.51,13.35,13.35,0,0,1-2.29,1.75c-.42.25-.85.49-1.28.71l-.4.19c-.19.09-.18.08,0,0l.29,0c-.91,0-.41.4,1.51,1.37v1.33l0-.16a2.56,2.56,0,0,0-1.75-3.07,2.52,2.52,0,0,0-3.07,1.75Z"/>
      </g>
      <g id="hair-seven">
        <path class="cls-3" d="M265.15,500.72a5.54,5.54,0,0,1,.05,1.22c0,.42.07-.28,0,.13,0,.18-.09.35-.14.52a3,3,0,0,1-.93,1.38,3.28,3.28,0,0,1-3,.55,2.58,2.58,0,0,0-2.83,1.15,14.48,14.48,0,0,1-3.62,4,5.4,5.4,0,0,1-4.45,1,2.5,2.5,0,0,0-1.33,4.83,10.24,10.24,0,0,0,8.06-1.34,20,20,0,0,0,5.66-6l-2.82,1.15a8.32,8.32,0,0,0,7.65-1.66,8,8,0,0,0,2.71-7,2.58,2.58,0,0,0-2.5-2.5,2.53,2.53,0,0,0-2.5,2.5Z"/>
      </g>
      <g id="hair-six">
        <path class="cls-3" d="M212.47,524.29c.12,2.94,3,4.49,5.67,4.17a10.65,10.65,0,0,0,7.09-3.82l-4.18-1.1c.54,3.35,3.09,6,5.95,7.59,2.62,1.5,7.41,3.68,9.86.78a2.57,2.57,0,0,0,0-3.54,2.53,2.53,0,0,0-3.54,0c-.3.31-.19.29.33-.08l-.24.07c.24-.05.2-.06-.12-.05l.13,0c-.54-.14-1.07-.28-1.59-.46a14.15,14.15,0,0,1-2.81-1.36,6,6,0,0,1-3.15-4.31,2.51,2.51,0,0,0-4.18-1.11,6.16,6.16,0,0,1-3,2.18,3.24,3.24,0,0,1-1.61.22c.43.07-.38,0,.07,0-.25-.15-.27-.16,0,0a1.21,1.21,0,0,1,.35.78,2.5,2.5,0,0,0-5,0Z"/>
      </g>
      <g id="hair-five">
        <path class="cls-3" d="M192.89,273.08a7.06,7.06,0,0,0,7.4,6.63,6.31,6.31,0,0,0,1.49-.27,8.1,8.1,0,0,0,.92-.38l.2-.09c.26-.12.27-.13,0,0l.21-.06a1.37,1.37,0,0,1-1.31-.34c.08.15.34.31.45.41a9.77,9.77,0,0,0,1.38,1,9,9,0,0,0,6.28,1,2.52,2.52,0,0,0,1.74-3.08,2.56,2.56,0,0,0-3.07-1.74c-.65.12.29,0-.08,0l-.54,0a4.58,4.58,0,0,1-.64,0c.23,0,.29,0,0,0l-.62-.17c-.44-.12.15.11-.1,0s-.62-.35-.92-.54.24.24-.08-.08l-.37-.33a4.29,4.29,0,0,0-1.63-.9,3.61,3.61,0,0,0-2.06.08,7.27,7.27,0,0,0-.81.34,2.84,2.84,0,0,1-.61.29c.22,0,.41-.15,0-.05s.08,0,.08,0a3.93,3.93,0,0,1-.84,0s.63.15.08,0l-.4-.12c-.5-.15.27.18,0,0s-.25-.14-.37-.21a1.64,1.64,0,0,1-.22-.14c-.15-.1-.1-.06.16.14-.07,0-.2-.18-.25-.23s-.37-.33-.36-.37.29.46,0,0l-.21-.36c-.22-.38.06.32,0,.05s-.08-.28-.11-.41c-.14-.48,0,.54,0,0a2.5,2.5,0,0,0-5,0Z"/>
      </g>
      <g id="hair-four">
        <path class="cls-3" d="M191.35,325.39a6.67,6.67,0,0,0,1,5,7.59,7.59,0,0,0,4.09,3,6,6,0,0,0,2.3.2,8.48,8.48,0,0,0,1.5-.3c.07,0,.72-.21.37-.13-.2,0-.17,0,.08,0l-.26,0s.77.27.17,0l.62.28,1.08.5,2.6,1.18a2.56,2.56,0,0,0,3.42-.89,2.53,2.53,0,0,0-.89-3.42c-1.44-.66-2.87-1.33-4.31-2a5.41,5.41,0,0,0-2.84-.63,7.38,7.38,0,0,0-1.47.3,3.92,3.92,0,0,0-.49.13c-.24.11.58,0,.09,0h-.33c-.52,0,.51.14,0,0l-.32-.08c-.3-.09-.38-.26,0,0-.21-.16-.5-.26-.73-.4s.08,0,.11.08-.25-.22-.31-.28-.3-.26-.29-.31c.2.27.24.33.14.18l-.1-.14c-.08-.12-.15-.23-.22-.36l-.11-.22c-.05-.12-.05-.1,0,.07s.09.2,0,0l-.05-.15,0-.16c0-.22,0-.22,0,0s0,.22,0,0v-.16c0-.18.07-.7,0,0a2.58,2.58,0,0,0-1.75-3.08c-1.19-.27-2.87.36-3.08,1.75Z"/>
      </g>
      <g id="hair-three">
        <path class="cls-3" d="M285.31,263.7a7,7,0,0,0,5.1,6.22,7.9,7.9,0,0,0,7.79-2.55h-3.54a8.16,8.16,0,0,0,9.43.79,2.5,2.5,0,0,0-2.53-4.31c-.07,0-.73.38-.48.28s-.35.1-.43.12l-.32.07c.3,0,.3,0,0,0h-.67c-.64,0,.42.13-.21,0l-.64-.17c-.52-.13.21.17-.21-.09-.09-.05-.82-.55-.41-.22a2.55,2.55,0,0,0-3.54,0c-.15.18-.3.34-.46.5s-.51.41-.27.24-.27.16-.32.19-.69.31-.22.14l-.54.17c-.21.05-.48.1-.12.05-.22,0-.44,0-.67,0-.45,0,.11.07-.11,0l-.51-.13c.32.08.14.07-.08-.05s-.3-.18-.44-.28c.42.27-.06-.07-.14-.15s-.38-.5-.21-.23-.11-.22-.14-.27c-.29-.48.05.37-.07-.17,0-.15-.09-.75-.05-.16a2.5,2.5,0,0,0-5,0Z"/>
      </g>
      <g id="hair-two">
        <path class="cls-3" d="M302.25,330.19a5.64,5.64,0,0,0,5.95-2.51h-4.32c1.16,1.6,2.55,3.39,4.63,3.77a5.43,5.43,0,0,0,3.39-.42,4.31,4.31,0,0,0,2.15-2.53,2.51,2.51,0,0,0-1.75-3.07,2.56,2.56,0,0,0-3.07,1.74s.29-.58.12-.31.2-.26.22-.26a1,1,0,0,0-.14.15c-.25.26.47-.29.22-.18a.81.81,0,0,0-.18.1c-.17.12.52-.16.31-.14s-.31.09-.47.11l.67-.09a3.22,3.22,0,0,1-.76,0l.67.09-.42-.1c-.4-.09.53.29.15.06a3.24,3.24,0,0,0-.47-.28c.32.25.39.3.19.13a1.07,1.07,0,0,1-.16-.14,8.94,8.94,0,0,1-.66-.71c-.38-.47.29.39,0,0l-.33-.45a2.61,2.61,0,0,0-2.16-1.24,2.57,2.57,0,0,0-2.16,1.24l-.13.21c.3-.53.26-.34.1-.17s-.31.25,0,0,0,0-.05,0l-.22.12c-.31.18.24-.08.25-.1s-.48.14-.6.16l.66-.09a3.75,3.75,0,0,1-.75,0l.67.09-.25,0a2.67,2.67,0,0,0-1.92.25,2.5,2.5,0,0,0,.59,4.57Z"/>
      </g>
      <g id="hair-one">
        <path class="cls-3" d="M229.35,412.88A8.31,8.31,0,0,0,240,416.31a7.3,7.3,0,0,0,1.14-.68l.64-.43c.07,0,.56-.24.32-.21-.47.06.07.21.3.35a13.54,13.54,0,0,0,1.71.84,12,12,0,0,0,7.19.52,2.5,2.5,0,0,0-1.33-4.82,6.71,6.71,0,0,1-4.5-.54,7.83,7.83,0,0,0-3.18-1.33,5.25,5.25,0,0,0-3.16.95c-.34.23-.66.48-1,.7,0,0-.58.3-.34.2s-.22.07-.26.08a3.77,3.77,0,0,1-.58.14c.26-.05.15,0-.05,0h-.6c-.39,0,.34.07-.05,0a7.61,7.61,0,0,1-1-.28c.33.11,0,0-.17-.1l-.41-.24c-.09,0-.45-.37-.17-.11l-.34-.33c-.11-.11-.22-.26-.06,0a4.23,4.23,0,0,1-.37-.62,2.5,2.5,0,0,0-4.32,2.53Z"/>
      </g>
    </g>
    <g id="bigfoot-eyes">
      <circle id="eye-right" class="cls-4" cx="264.31" cy="295.11" r="4.36"/>
      <circle id="eye-left" class="cls-4" cx="236.2" cy="296.7" r="4.36"/>
    </g>
    <g id="cloud">
      <g id="cloud-main">
        <path class="cls-5" d="M57.54,132a37.55,37.55,0,0,0-3.53,7.2A27,27,0,0,0,52.58,144a42,42,0,0,0-.68,13.41,49.56,49.56,0,0,0,1.47,8,49.34,49.34,0,0,0,3,7.41,26.28,26.28,0,0,0,2.66,4.4,39.4,39.4,0,0,0,5.28,6.1c7.43,6.54,17.24,10.47,27.24,9.8A42.25,42.25,0,0,0,107.3,189a43.54,43.54,0,0,0,10.92-7.78c7.5-7.11,12.64-16.66,15.63-26.47L113,160.23c5.8,5.34,11.74,10.71,18.45,14.9a46.19,46.19,0,0,0,22.91,7.29,34.67,34.67,0,0,0,24-8.76,31.91,31.91,0,0,0,9.9-18.7,37.35,37.35,0,0,0-.29-14.48A28.68,28.68,0,0,0,181.2,128l-15.15,19.63a42.74,42.74,0,0,0,32.41,5.69c10.72-2.33,19.79-9.55,25.56-18.7a37,37,0,0,0,2.74-5.26,58,58,0,0,0,3.06-8.35,48.53,48.53,0,0,0,1.56-14.84c-.68-10.87-4.8-21.45-12.86-29-8.84-8.28-21.33-12.58-33.26-9.21l14.11,18.37c6.15-9.12,9.22-20.3,9.65-31.21.43-10.72-2.22-22.07-8-31.16-6-9.31-14.7-16.66-25.33-20a37.86,37.86,0,0,0-30.68,4A45.33,45.33,0,0,0,124.4,36.78l20.89-5.51c-6.29-4.91-12.56-10-19.58-13.86a54.15,54.15,0,0,0-24-7.16c-7.85-.31-16.45,1.82-22.83,6.5A38.87,38.87,0,0,0,73.77,21a42.83,42.83,0,0,0-4.28,5.4,37.4,37.4,0,0,0-4.72,10.15,36.11,36.11,0,0,0-1.62,11.95A35,35,0,0,0,66.94,63L77.73,44.23c-7.12-.1-14.26-.7-21.38-.15a58.92,58.92,0,0,0-22.46,5.86,42.36,42.36,0,0,0-16.36,14.9,40,40,0,0,0-5.91,20.21A35.74,35.74,0,0,0,13.11,96.5,33.12,33.12,0,0,0,20,108.74l12.16-20.9a19.88,19.88,0,0,0-6.59-.8,24.71,24.71,0,0,0-9.44,2.49c-4.25,1.94-7.36,5.37-10.1,9A30.94,30.94,0,0,0,1.07,109,34.74,34.74,0,0,0,.57,124c1.26,7.91,5.78,15.4,11.37,21a53.24,53.24,0,0,0,21.19,12.66A57.26,57.26,0,0,0,63,158.91a12.5,12.5,0,0,0,3-22.85,13.68,13.68,0,0,0-9.63-1.26c-1.14.25-2.29.45-3.44.61l3.32-.45a45,45,0,0,1-11.71,0l3.32.45a46,46,0,0,1-11.4-3.13l3,1.26a41.12,41.12,0,0,1-8.82-5.07l2.53,1.95a35.27,35.27,0,0,1-6.2-6.13l1.95,2.53a29.88,29.88,0,0,1-3.74-6.33l1.26,3a26.64,26.64,0,0,1-1.8-6.55l.44,3.32a20.89,20.89,0,0,1,0-5.06l-.45,3.33A22.94,22.94,0,0,1,26.09,113l-1.26,3a22.2,22.2,0,0,1,2.77-4.79l-2,2.53a17.27,17.27,0,0,1,3-3l-2.53,2a12.89,12.89,0,0,1,2.63-1.55l-3,1.26a11.4,11.4,0,0,1,2.55-.72l-3.33.45a10.35,10.35,0,0,1,2.36,0L24,111.64a11.09,11.09,0,0,1,1.5.31,12.45,12.45,0,0,0,8.14-.63,11.89,11.89,0,0,0,6-5.11,14.83,14.83,0,0,0,1.71-6.31c.15-3.35-1.56-6.42-3.66-8.84-.22-.25-.43-.51-.64-.77l2,2.53a19.08,19.08,0,0,1-2.34-4l1.26,3a23.32,23.32,0,0,1-1.51-5.63l.45,3.32a28.51,28.51,0,0,1,0-7.44l-.45,3.33a29.44,29.44,0,0,1,2-7.18l-1.26,3a26.42,26.42,0,0,1,3.33-5.63l-2,2.53A30.31,30.31,0,0,1,43.66,73l-2.53,2a34.72,34.72,0,0,1,7.41-4.31l-3,1.26A43.05,43.05,0,0,1,56.29,69L53,69.43c8.22-1.07,16.51-.32,24.76-.2A12.53,12.53,0,0,0,88.53,63c2.37-4.06,2-8.54,0-12.62-.21-.41-.4-.82-.58-1.24l1.26,3a20.69,20.69,0,0,1-1.32-4.95l.45,3.32a25.06,25.06,0,0,1,0-6.24l-.44,3.33a27.74,27.74,0,0,1,1.95-7.09l-1.27,3a27.83,27.83,0,0,1,3.29-5.63l-2,2.53a22.53,22.53,0,0,1,3.77-3.79l-2.53,2a24.77,24.77,0,0,1,5.11-3l-3,1.26A26.89,26.89,0,0,1,100,35l-3.33.45a31.76,31.76,0,0,1,8.15.06l-3.32-.45a39.91,39.91,0,0,1,9.69,2.77l-3-1.26c7.11,3.07,13.37,7.67,19.46,12.37l-2.53-2L127.61,49a12.51,12.51,0,0,0,12.16,3.21c4-1.1,7.86-4.54,8.74-8.73a34.14,34.14,0,0,1,2-6.4l-1.26,3a34.4,34.4,0,0,1,4.21-7.17l-2,2.53a33.57,33.57,0,0,1,5.95-6l-2.53,1.95a30.78,30.78,0,0,1,6.44-3.77l-3,1.26a27,27,0,0,1,6.37-1.77l-3.32.45a25,25,0,0,1,6.64,0l-3.32-.44A27.88,27.88,0,0,1,171.57,29l-3-1.26a32.46,32.46,0,0,1,6.88,4.07l-2.53-2a37.4,37.4,0,0,1,6.38,6.38l-1.95-2.53a40.14,40.14,0,0,1,5.1,8.72l-1.26-3a43.79,43.79,0,0,1,2.86,10.62l-.45-3.32a49.71,49.71,0,0,1,0,13.18l.45-3.33a50.58,50.58,0,0,1-3.46,12.62l1.26-3a45.51,45.51,0,0,1-4.07,7.48l-1.26,3L176.08,80a12.38,12.38,0,0,0,2.68,7.57,12.54,12.54,0,0,0,13.14,4.48,20,20,0,0,1,2.85-.59l-3.32.44a20.72,20.72,0,0,1,5.1,0l-3.32-.45a23.16,23.16,0,0,1,5.59,1.58l-3-1.26a26.48,26.48,0,0,1,5.46,3.2l-2.53-2a30,30,0,0,1,5.14,5.12l-2-2.53a31,31,0,0,1,3.8,6.48l-1.26-3a32.27,32.27,0,0,1,2.1,7.77l-.44-3.32a37.76,37.76,0,0,1,0,9.56l.44-3.33a39.35,39.35,0,0,1-2.67,9.89l1.26-3a36.5,36.5,0,0,1-4.44,7.71l2-2.53a29.85,29.85,0,0,1-5.4,5.43l2.53-2a28.75,28.75,0,0,1-6,3.48l3-1.26a29.26,29.26,0,0,1-7.23,2l3.33-.45a30.71,30.71,0,0,1-7.84,0l3.32.44a31.23,31.23,0,0,1-7.64-2.08l3,1.26a32,32,0,0,1-5.09-2.74,12.61,12.61,0,0,0-9.63-1.26,13,13,0,0,0-6.49,4.48,11.94,11.94,0,0,0-2.69,7.58,13.81,13.81,0,0,0,3.66,8.84c.21.23.41.47.61.71l-2-2.53a16,16,0,0,1,1.9,3.21l-1.26-3a19.44,19.44,0,0,1,1.31,4.92l-.44-3.32a24,24,0,0,1-.06,5.93l.45-3.33a24.78,24.78,0,0,1-1.67,6.09l1.26-3a21.36,21.36,0,0,1-2.76,4.73l2-2.53a19.25,19.25,0,0,1-3.15,3.1l2.53-2a21.48,21.48,0,0,1-4.51,2.64l3-1.26a23.09,23.09,0,0,1-5.67,1.53l3.33-.45a27,27,0,0,1-6.66,0l3.32.45a31.77,31.77,0,0,1-8-2.22l3,1.26a53.6,53.6,0,0,1-11.28-6.87l2.53,1.95c-3.7-2.88-7.17-6.05-10.62-9.23a12.5,12.5,0,0,0-20.89,5.52q-.87,2.84-2,5.56l1.26-3a50.26,50.26,0,0,1-6.18,10.67l2-2.53a39.76,39.76,0,0,1-7,7.08l2.53-2a31.75,31.75,0,0,1-6.77,4l3-1.26A27.49,27.49,0,0,1,90,168.4l3.32-.44a27.51,27.51,0,0,1-7.08,0l3.32.45a26.26,26.26,0,0,1-6.5-1.8l3,1.26a25.69,25.69,0,0,1-5.31-3.1l2.53,2a25.93,25.93,0,0,1-4.4-4.36l2,2.53A27.69,27.69,0,0,1,77.34,159l1.26,3a32.94,32.94,0,0,1-2.15-7.86l.45,3.32a32,32,0,0,1,0-8.52l-.45,3.32a27.25,27.25,0,0,1,1.82-6.7l-1.26,3a24.07,24.07,0,0,1,2.13-3.89c1.75-2.58,2.07-6.71,1.26-9.63A12.5,12.5,0,0,0,65,126.23,13.86,13.86,0,0,0,57.54,132Z"/>
      </g>
    </g>
  </g>
</svg>
