<svg xmlns="http://www.w3.org/2000/svg" viewBox="0 0 231.46 190.88">
  <defs>
    <style>
      .cls-1 {
        fill: #aed5ff;
      }
    </style>
  </defs>
  <g id="Layer_2" data-name="Layer 2">
    <g id="cloud">
      <g id="cloud-main">
        <path class="cls-1" d="M57.54,129.64a37.27,37.27,0,0,0-3.53,7.2,27,27,0,0,0-1.43,4.82,42,42,0,0,0-.68,13.41,49.56,49.56,0,0,0,1.47,8,49.77,49.77,0,0,0,3,7.41A25.8,25.8,0,0,0,59,174.9,39.47,39.47,0,0,0,64.27,181c7.43,6.54,17.24,10.47,27.24,9.79a42,42,0,0,0,15.79-4.17,43.33,43.33,0,0,0,10.92-7.79c7.5-7.1,12.64-16.65,15.63-26.46L113,157.9c5.8,5.34,11.74,10.71,18.45,14.9a46.19,46.19,0,0,0,22.91,7.29,34.68,34.68,0,0,0,24-8.77,31.88,31.88,0,0,0,9.9-18.69,37.35,37.35,0,0,0-.29-14.48,28.57,28.57,0,0,0-6.69-12.45l-15.15,19.63A42.74,42.74,0,0,0,198.46,151c10.72-2.33,19.79-9.55,25.56-18.7a37.52,37.52,0,0,0,2.74-5.26,58,58,0,0,0,3.06-8.35,48.57,48.57,0,0,0,1.56-14.84c-.68-10.87-4.8-21.45-12.86-29-8.84-8.29-21.33-12.58-33.26-9.21L199.37,84c6.15-9.11,9.22-20.29,9.65-31.2.43-10.72-2.22-22.07-8-31.16-6-9.32-14.7-16.66-25.33-20A37.82,37.82,0,0,0,145,5.6,45.31,45.31,0,0,0,124.4,34.45l20.89-5.51c-6.29-4.91-12.56-10-19.58-13.87a54.14,54.14,0,0,0-24-7.15c-7.85-.32-16.45,1.82-22.83,6.5a38.87,38.87,0,0,0-5.1,4.22A42.83,42.83,0,0,0,69.49,24a37.4,37.4,0,0,0-4.72,10.15,36,36,0,0,0-1.62,11.94,35.06,35.06,0,0,0,3.79,14.58L77.73,41.9c-7.12-.1-14.26-.7-21.38-.15a58.74,58.74,0,0,0-22.46,5.86,42.28,42.28,0,0,0-16.36,14.9,39.93,39.93,0,0,0-5.91,20.21,35.78,35.78,0,0,0,1.49,11.45A33,33,0,0,0,20,106.4L32.15,85.51a19.88,19.88,0,0,0-6.59-.8,24.53,24.53,0,0,0-9.44,2.49c-4.25,1.94-7.36,5.37-10.1,9A31,31,0,0,0,1.07,106.7a34.75,34.75,0,0,0-.5,14.91c1.26,7.92,5.78,15.41,11.37,21A53.24,53.24,0,0,0,33.13,155.3,57.37,57.37,0,0,0,63,156.58a12.5,12.5,0,0,0,3-22.85,13.68,13.68,0,0,0-9.63-1.26c-1.14.24-2.29.45-3.44.61l3.32-.45a45,45,0,0,1-11.71,0l3.32.45a46,46,0,0,1-11.4-3.13l3,1.26a40.75,40.75,0,0,1-8.82-5.08l2.53,2A35.27,35.27,0,0,1,27,122l1.95,2.53a30.13,30.13,0,0,1-3.74-6.33l1.26,3a26.52,26.52,0,0,1-1.8-6.55l.44,3.33a20.89,20.89,0,0,1,0-5.06l-.45,3.32a23.19,23.19,0,0,1,1.48-5.53l-1.26,3a22,22,0,0,1,2.77-4.79l-2,2.53a16.92,16.92,0,0,1,3-3l-2.53,2a13.32,13.32,0,0,1,2.63-1.54l-3,1.26a11.4,11.4,0,0,1,2.55-.72l-3.33.44a11,11,0,0,1,2.36,0L24,109.31a11.09,11.09,0,0,1,1.5.31,12.45,12.45,0,0,0,8.14-.63,12,12,0,0,0,6-5.12,14.79,14.79,0,0,0,1.71-6.31c.15-3.34-1.56-6.41-3.66-8.83L37,88l2,2.53a19.08,19.08,0,0,1-2.34-4l1.26,3a23.32,23.32,0,0,1-1.51-5.63l.45,3.32a28.51,28.51,0,0,1,0-7.44L36.43,83a29.24,29.24,0,0,1,2-7.17l-1.26,3a26.42,26.42,0,0,1,3.33-5.63l-2,2.53a30.74,30.74,0,0,1,5.14-5.12l-2.53,2a34.72,34.72,0,0,1,7.41-4.31l-3,1.26a43.05,43.05,0,0,1,10.74-2.86L53,67.1c8.22-1.07,16.51-.32,24.76-.2a12.56,12.56,0,0,0,10.8-6.19c2.37-4.06,2-8.54,0-12.62-.21-.41-.4-.82-.58-1.24l1.26,3a20.81,20.81,0,0,1-1.32-4.95l.45,3.32a25.06,25.06,0,0,1,0-6.24l-.44,3.32a27.78,27.78,0,0,1,1.95-7.08l-1.27,3a27.56,27.56,0,0,1,3.29-5.63l-2,2.53a22.53,22.53,0,0,1,3.77-3.79l-2.53,2a25.18,25.18,0,0,1,5.11-3l-3,1.26A26.89,26.89,0,0,1,100,32.69l-3.33.45a31.76,31.76,0,0,1,8.15.06l-3.32-.45a39.47,39.47,0,0,1,9.69,2.77l-3-1.26c7.11,3.07,13.37,7.67,19.46,12.37l-2.53-2,2.49,1.93a12.48,12.48,0,0,0,12.16,3.22c4-1.1,7.86-4.55,8.74-8.73a34.24,34.24,0,0,1,2-6.41l-1.26,3a34.47,34.47,0,0,1,4.21-7.18l-2,2.53a33.51,33.51,0,0,1,5.95-6l-2.53,2a30.78,30.78,0,0,1,6.44-3.77l-3,1.26a26.56,26.56,0,0,1,6.37-1.77l-3.32.45a25,25,0,0,1,6.64,0l-3.32-.45a27.9,27.9,0,0,1,6.83,1.93l-3-1.26a32.85,32.85,0,0,1,6.88,4.06l-2.53-1.95a37,37,0,0,1,6.38,6.38l-1.95-2.53a39.91,39.91,0,0,1,5.1,8.72l-1.26-3a43.79,43.79,0,0,1,2.86,10.62l-.45-3.33a49.78,49.78,0,0,1,0,13.19l.45-3.33a50.7,50.7,0,0,1-3.46,12.62l1.26-3a45.92,45.92,0,0,1-4.07,7.48l-1.26,3-.44,3.32a12.39,12.39,0,0,0,2.68,7.58,12.54,12.54,0,0,0,13.14,4.48,21.55,21.55,0,0,1,2.85-.6l-3.32.45a20.72,20.72,0,0,1,5.1,0l-3.32-.45a23.6,23.6,0,0,1,5.59,1.57l-3-1.26a27,27,0,0,1,5.46,3.21l-2.53-2a30,30,0,0,1,5.14,5.12l-2-2.53a30.75,30.75,0,0,1,3.8,6.48l-1.26-3a32.14,32.14,0,0,1,2.1,7.77l-.44-3.32a37.68,37.68,0,0,1,0,9.55l.44-3.32a39.35,39.35,0,0,1-2.67,9.89l1.26-3a36.32,36.32,0,0,1-4.44,7.72l2-2.53a30.17,30.17,0,0,1-5.4,5.43l2.53-2a29.2,29.2,0,0,1-6,3.48l3-1.26a30.15,30.15,0,0,1-7.23,2l3.33-.45a30.26,30.26,0,0,1-7.84,0l3.32.45a31.68,31.68,0,0,1-7.64-2.08l3,1.26a32,32,0,0,1-5.09-2.74,12.61,12.61,0,0,0-9.63-1.26,13,13,0,0,0-6.49,4.48,11.94,11.94,0,0,0-2.69,7.58,13.78,13.78,0,0,0,3.66,8.83l.61.72-2-2.53a16,16,0,0,1,1.9,3.21l-1.26-3a19.44,19.44,0,0,1,1.31,4.92l-.44-3.32a23.94,23.94,0,0,1-.06,5.92l.45-3.32a24.59,24.59,0,0,1-1.67,6.08l1.26-3a21.59,21.59,0,0,1-2.76,4.73l2-2.53a19.25,19.25,0,0,1-3.15,3.1l2.53-1.95a21.48,21.48,0,0,1-4.51,2.64l3-1.26a23.54,23.54,0,0,1-5.67,1.53l3.33-.45a27.48,27.48,0,0,1-6.66,0l3.32.44a31.34,31.34,0,0,1-8-2.21l3,1.26a54,54,0,0,1-11.28-6.87l2.53,1.95c-3.7-2.88-7.17-6-10.62-9.23a12.49,12.49,0,0,0-20.89,5.51c-.58,1.9-1.25,3.75-2,5.57l1.26-3A50.26,50.26,0,0,1,102.81,159l2-2.53a40,40,0,0,1-7,7.07l2.53-1.95a31.71,31.71,0,0,1-6.77,4l3-1.26A27,27,0,0,1,90,166.07l3.32-.45a27.07,27.07,0,0,1-7.08,0l3.32.45a26.71,26.71,0,0,1-6.5-1.8l3,1.26a25.69,25.69,0,0,1-5.31-3.1l2.53,2a25.63,25.63,0,0,1-4.4-4.37l2,2.53a27.87,27.87,0,0,1-3.44-5.93l1.26,3a32.87,32.87,0,0,1-2.15-7.85l.45,3.32a32,32,0,0,1,0-8.52l-.45,3.32a27.45,27.45,0,0,1,1.82-6.71l-1.26,3a24.07,24.07,0,0,1,2.13-3.89c1.75-2.58,2.07-6.71,1.26-9.63A12.5,12.5,0,0,0,65,123.9a13.81,13.81,0,0,0-7.47,5.74Z"/>
      </g>
    </g>
  </g>
</svg>
