<svg xmlns="http://www.w3.org/2000/svg" viewBox="0 0 463.46 412.47">
  <defs>
    <style>
      .cls-1 {
        fill: #231f20;
      }
    </style>
  </defs>
  <g id="Layer_2" data-name="Layer 2">
    <g id="hand">
      <g>
        <g>
          <path class="cls-1" d="M332.31.76c-13.87,14.51-27.86,28.91-41.6,43.54a213.31,213.31,0,0,0-18.65,22.27,246.19,246.19,0,0,0-14.71,24c-9.58,17.42-18.85,35-28.28,52.54q-14.43,26.76-28.88,53.51c-8.28,15.35-16.74,30.95-28.76,43.76q-2.22,2.35-4.57,4.57c-2.36,2.21,1.18,5.74,3.53,3.53C183.31,236.36,192.55,221,201,205.61c9.57-17.45,18.92-35,28.38-52.55q14.3-26.52,28.54-53.06c4.45-8.27,9-16.52,14.07-24.41A176.42,176.42,0,0,1,289.45,53c6.58-7.28,13.46-14.3,20.24-21.39l21-22,5.16-5.39c2.23-2.33-1.3-5.87-3.53-3.54Z"/>
          <path class="cls-1" d="M195.22,229.14c-11.22,14.12-30.28,16.94-47.11,18.51-10.25.95-20.61,1.7-30.56,4.53-9.62,2.74-18.68,7.11-28.21,10.15-9.84,3.15-20.15,3.7-30.16,6.1-9.27,2.22-17.64,6.78-26,11.14a116.58,116.58,0,0,1-12.27,5.7c-3.92,1.48-8,2.19-12,3.55-3.71,1.29-7.17,3.43-8.47,7.34s.68,8.47,3.82,11.07c4,3.29,9,3.66,13.92,2.89,5.16-.81,10.23-2.56,15.26-3.95l31.46-8.7,7.69-2.13c3.09-.85,1.78-5.68-1.33-4.82L40.74,299l-15.13,4.18c-4.5,1.24-9.58,3.15-14.3,2.13-3-.65-6.35-3.12-6.31-6.46,0-3.17,3.38-4.6,6-5.43,3.86-1.21,7.79-2,11.57-3.44a127.25,127.25,0,0,0,12.5-5.76c7.94-4.1,15.78-8.49,24.51-10.7,9.68-2.45,19.73-2.91,29.33-5.78,9.29-2.79,18.08-7,27.33-9.91,9.51-3,19.36-4,29.25-4.9,17.13-1.56,35.76-3.65,49.08-15.75a37.45,37.45,0,0,0,4.17-4.46,2.58,2.58,0,0,0,0-3.54,2.53,2.53,0,0,0-3.54,0Z"/>
          <path class="cls-1" d="M130.42,263.3c-17.78,4.92-36,10.15-50.8,21.71-7.44,5.82-13.67,13-20.73,19.28-6.12,5.43-12.53,10.54-18.28,16.37S30.05,332.8,27.22,340.35c-1.4,3.72-2.72,8.28-1.17,12.15,1.86,4.65,6.85,5.54,11.33,5.12,9.14-.85,17.08-6,23.6-12.17,6.77-6.4,12.19-14.07,19.08-20.34,12.17-11.08,29.5-13,42.58-22.65a51.22,51.22,0,0,0,5-4.19c2.32-2.24-1.22-5.77-3.54-3.54-11.4,11-27.73,13.16-40.73,21.52-14.58,9.38-22.18,27.2-38.42,34.33-3.37,1.48-7.5,2.57-11.21,2.08-1.65-.23-2.88-1-3.24-2.65a10.9,10.9,0,0,1,.48-5c1.94-7.11,6.17-13.28,11.12-18.64,5.29-5.73,11.33-10.7,17.22-15.79C66,304.79,72,298.39,78.51,292.48c13.21-12,30-17.79,46.86-22.57,2.13-.61,4.25-1.2,6.38-1.79,3.1-.85,1.79-5.68-1.33-4.82Z"/>
          <path class="cls-1" d="M137.16,281.52q-19.72,19.41-37.78,40.4T65,365.49c-2.47,3.41-6,7.2-5.9,11.67,0,3.78,2.69,6.83,6,8.33,7.12,3.21,15.3.41,21.28-3.94,6.52-4.76,11.39-11.17,16.64-17.21,5.92-6.79,12.18-13.27,18.62-19.56,12.94-12.64,26.59-24.52,40-36.65l4.93-4.49c2.37-2.18-1.17-5.71-3.54-3.54-12.79,11.72-25.91,23.08-38.52,35-6.37,6-12.61,12.17-18.59,18.58-2.89,3.1-5.72,6.26-8.46,9.5-2.47,2.9-4.88,5.85-7.54,8.6-4.62,4.79-10.42,9.67-17.38,10.09-2.67.16-5.92-.41-7.67-2.6-2.23-2.77.93-6.38,2.68-8.82Q83,349,100.07,328.79t35.88-39c1.57-1.58,3.16-3.15,4.74-4.71,2.3-2.26-1.23-5.8-3.53-3.54Z"/>
          <path class="cls-1" d="M145.42,322.75l1.35-.22.41-.06.37,0a14,14,0,0,1,2-.05c.12,0,.61.08.07,0l.42.08a8.48,8.48,0,0,1,1.1.29l.58.21c.15.06.15.06,0,0l.25.12c.38.18.75.36,1.11.56s.62.36.92.55l.5.33.33.24c-.2-.15.31.27.3.25l.45.4c.26.25.51.5.75.76l.39.45c.17.2-.13-.21.11.15a11.17,11.17,0,0,1,.64,1l.22.41s.27.59.17.34.11.31.13.36c.07.22.14.45.2.68a2.5,2.5,0,1,0,4.82-1.33,16.1,16.1,0,0,0-13.15-10.8,22.28,22.28,0,0,0-5.81.53,2.51,2.51,0,0,0-1.75,3.08,2.56,2.56,0,0,0,3.07,1.74Z"/>
          <path class="cls-1" d="M177.71,303.49c-8.12,13.73-20.67,24.18-28.79,37.91-4.37,7.41-6.44,15.55-9.11,23.65a47.77,47.77,0,0,1-5.22,11.45c-2.33,3.55-5.19,6.72-7.5,10.29-3.92,6.07-6.14,14.8-1.32,21.06,5.25,6.83,14.58,5,21.13,1.32,7.09-4.05,13.12-10.44,17.89-17,5.34-7.31,8.54-15.57,11.73-24a168.48,168.48,0,0,1,12.35-25c2.11-3.6,4.16-7.28,6.54-10.71a23.94,23.94,0,0,1,7.23-7.29,12.9,12.9,0,0,1,4.67-1.6,2.52,2.52,0,0,0,1.75-3.08,2.56,2.56,0,0,0-3.08-1.74c-7.44,1.1-12.54,7.39-16.33,13.37a228.19,228.19,0,0,0-13.08,23.29c-3.95,8.18-6.4,17-10.5,25.1a64.79,64.79,0,0,1-14.28,18.71,38.76,38.76,0,0,1-9.29,6.58c-2.82,1.34-6.26,2.3-9.34,1.37-6.55-2-5.76-10.55-3.25-15.34,1.91-3.64,4.6-6.78,7-10.07a47.64,47.64,0,0,0,6.09-11c3-7.59,4.46-15.75,8.12-23.09,7-13.89,19-24.24,27.77-36.88,1.09-1.57,2.12-3.19,3.1-4.84,1.64-2.77-2.68-5.29-4.32-2.52Z"/>
          <path class="cls-1" d="M190.76,334a61,61,0,0,0,32.16,22.12L221.17,353c-1.86,6.51-7.07,11.42-9.63,17.63a30.66,30.66,0,0,0-1.28,18.74c1.48,6.15,4.94,12.32,10.19,16a12.81,12.81,0,0,0,9.4,2.46c3.37-.59,5.69-3.23,7.07-6.19s2.5-5.76,4.54-8.27a60,60,0,0,1,7.14-7.12c5.08-4.49,10.48-9,13.44-15.29a19.87,19.87,0,0,0,2.07-10c-.31-3.83-1.7-7.38-2.61-11.08-1.84-7.49.11-15.27-.8-22.86-.84-7-3.13-13.56-5.23-20.21-2-6.29-3.93-12.81-3.56-19.48a24.06,24.06,0,0,1,.7-4.55c.79-3.12-4-4.45-4.82-1.33-3.3,13.19,3.18,26,6.45,38.47a49,49,0,0,1,1.66,9.28c.24,3.62-.06,7.24-.16,10.86a41.3,41.3,0,0,0,1,11.36c.84,3.37,2.27,6.7,2.41,10.21.25,6.25-3.85,11.56-8.09,15.73-4.51,4.43-9.72,8.13-13.63,13.14a39.35,39.35,0,0,0-4.67,8.32c-1,2.33-2.44,4.52-5.28,4.22-5.39-.57-9.34-6.51-11.18-11.07a26.45,26.45,0,0,1-.47-18.59c2.42-6.84,8.14-11.92,10.16-19a2.53,2.53,0,0,0-1.74-3.07,55.53,55.53,0,0,1-29.17-19.83,2.58,2.58,0,0,0-3.42-.9,2.54,2.54,0,0,0-.9,3.43Z"/>
          <path class="cls-1" d="M252.61,282.73c1.68-8.91,6.26-17.11,10.7-24.91a249.67,249.67,0,0,1,14-21.81c10.07-14.1,21.33-27.31,32.63-40.43,11.43-13.29,22.94-26.53,33.52-40.52,10.68-14.14,19.93-29.23,29.44-44.17,9.41-14.78,19.2-29.44,31.22-42.26,1.51-1.62,3.06-3.2,4.63-4.75,2.3-2.26-1.24-5.79-3.53-3.53-12.78,12.56-23.21,27.24-32.92,42.23s-18.79,30.3-29.27,44.72c-10.27,14.11-21.66,27.36-33,40.58s-23,26.7-33.55,40.86c-5.15,6.95-10.05,14.09-14.52,21.5-4.68,7.73-9.3,15.81-12.32,24.36a45.88,45.88,0,0,0-1.85,6.8,2.57,2.57,0,0,0,1.75,3.08,2.52,2.52,0,0,0,3.07-1.75Z"/>
          <path class="cls-1" d="M409.41,63q20.4-22,41.29-43.49,6-6.16,12-12.3c2.26-2.29-1.27-5.83-3.53-3.53q-21,21.36-41.58,43.21-5.89,6.27-11.75,12.57c-2.18,2.36,1.34,5.9,3.54,3.54Z"/>
        </g>
        <path class="cls-1" d="M19.22,289.2c.18,1-.67,2.21-1.39,3a14.35,14.35,0,0,1-3.15,2.66c-2.21,1.4-5.24,2.8-7.86,1.84a1.87,1.87,0,1,0-1,3.61c3.68,1.36,8.09-.42,11.17-2.47s6.61-5.5,5.85-9.64a1.88,1.88,0,1,0-3.62,1Z"/>
        <path class="cls-1" d="M77.19,357.82c2.62-1,4.91,1.2,5.68,3.57a15.26,15.26,0,0,1,.67,4.56,8,8,0,0,1-.7,4.2c-1.28,2.26-4.51,2.61-6.82,2.83a29.06,29.06,0,0,1-10.76-.53c-2.33-.65-3.32,3-1,3.62a30.32,30.32,0,0,0,10.44.78c3-.23,6.23-.49,8.79-2.15,2.81-1.83,3.78-4.86,3.8-8.09s-.38-6.59-2.26-9.2-5.57-4.46-8.84-3.21a1.94,1.94,0,0,0-1.31,2.31,1.9,1.9,0,0,0,2.31,1.31Z"/>
        <path class="cls-1" d="M244.54,386.2a20.3,20.3,0,0,0-4.6-8.67,3.36,3.36,0,0,0-2.4-1.3,3.7,3.7,0,0,0-2.32,1.12,22.11,22.11,0,0,0-3.27,3.36,13.75,13.75,0,0,0-3.31,8.81c.12,3.44,2.13,6.33,2.55,9.68a1.93,1.93,0,0,0,1.87,1.88,1.88,1.88,0,0,0,1.88-1.88,27.76,27.76,0,0,0-1.62-5.85,10.62,10.62,0,0,1-.86-5.26,10.87,10.87,0,0,1,2-4.57,15.69,15.69,0,0,1,1.77-2c.41-.41,1.2-1.44,1.77-1.56h-1c.32.08.94,1.1,1.14,1.37a17.64,17.64,0,0,1,1.19,1.89,16.72,16.72,0,0,1,1.55,4c.59,2.34,4.2,1.35,3.62-1Z"/>
        <path class="cls-1" d="M35.16,337.6a44.25,44.25,0,0,1,5.69-4.21c1.6-1,3.68-2.16,5.62-1.52a2.24,2.24,0,0,1,1.46,3.34,47.68,47.68,0,0,1-3.8,6.2l-2,3.2c-.32.5-.61,1.05-1,1.52.27-.36.4,0,.09-.15a4.09,4.09,0,0,0-1.1,0,23.33,23.33,0,0,1-7-.95,11.49,11.49,0,0,0-1.57-.51l-.17-.06c-.28-.2-.17,0,.34.67a2.54,2.54,0,0,0,.17-.37,23.6,23.6,0,0,1,1.48-2.7,22.86,22.86,0,0,1,3.63-4.34A22.43,22.43,0,0,1,42.48,334c1.61-.8,4-1.89,5.48-.25,1.59,1.82,4.23-.84,2.65-2.65-4.07-4.66-11.29-.09-14.92,2.87a26.4,26.4,0,0,0-5.23,5.83c-1.32,2-3.84,5.58-1.38,7.57A11,11,0,0,0,33.26,349a28.34,28.34,0,0,0,4.67.72,11.88,11.88,0,0,0,4.83-.24c1.43-.54,2.14-2.25,2.9-3.46,1.73-2.74,3.64-5.43,5.19-8.28,1.41-2.58,1.73-5.75-.63-7.91-5.6-5.11-13.39,1.4-17.72,5.14-1.83,1.58.84,4.22,2.66,2.65Z"/>
        <path class="cls-1" d="M130.2,388.89l5.9-1.3a13.45,13.45,0,0,1,5.6-.44A4.25,4.25,0,0,1,145,389.5a6.46,6.46,0,0,1-.19,4.48,38.28,38.28,0,0,1-2.34,5l-.72,1.42a3.54,3.54,0,0,1-.55,1c-.49.41-1.73.4-2.32.51-3.62.61-7.57,1.06-10.9-.83-2.1-1.2-4,2-1.89,3.24,3.3,1.88,7.12,2.11,10.82,1.65a19.78,19.78,0,0,0,5.77-1.14c1.75-.81,2.39-2.69,3.21-4.3,1.62-3.21,3.56-6.57,3.09-10.31a7.76,7.76,0,0,0-6.53-6.71,17.55,17.55,0,0,0-6.73.37c-2.16.46-4.31.95-6.46,1.42-2.36.52-1.36,4.14,1,3.62Z"/>
      </g>
    </g>
  </g>
</svg>
